<?xml version="1.0" encoding="utf-8"?>
<!-- Generator: Adobe Illustrator 16.0.0, SVG Export Plug-In . SVG Version: 6.00 Build 0)  -->
<!DOCTYPE svg PUBLIC "-//W3C//DTD SVG 1.1//EN" "http://www.w3.org/Graphics/SVG/1.1/DTD/svg11.dtd">
<svg version="1.1" id="Layer_1" xmlns="http://www.w3.org/2000/svg" xmlns:xlink="http://www.w3.org/1999/xlink" x="0px" y="0px"
	 width="340.16px" height="85.04px" viewBox="0 0 340.16 85.04" enable-background="new 0 0 340.16 85.04" xml:space="preserve">
<g>
	<g>
		<path fill-rule="evenodd" clip-rule="evenodd" fill="#FBC518" d="M244.539,61.852c5.167-6.323,8.27-14.401,8.27-23.206
			c0-20.264-16.427-36.691-36.69-36.691c-20.266,0-36.691,16.427-36.691,36.691c0,8.804,3.102,16.882,8.27,23.206H244.539z"/>
		<g opacity="0.5">
			<path fill="#ECB21F" d="M209.021,51.149c0.105,0.274,0.476-0.08,0.572-0.089C209.264,50.707,208.914,51.226,209.021,51.149z"/>
			<polygon fill="#ECB21F" points="205.936,47.239 206.152,47.258 205.477,46.707 			"/>
			<path fill="#ECB21F" d="M205.081,42.755c-0.435,0.239-0.328,0.666-0.18,1.117c0.083,0.227,0.157,0.461,0.246,0.688
				c0.084,0.228,0.135,0.452,0.103,0.669l-0.163,0.173c0,0,0.186,0.055,0.37,0.11c0.183,0.051,0.366,0.103,0.366,0.103
				c-0.074-0.232-0.172-0.479-0.277-0.732c-0.105-0.252-0.231-0.511-0.296-0.768c-0.078-0.256-0.145-0.508-0.182-0.739
				C205.03,43.144,205.02,42.931,205.081,42.755z"/>
			<path fill="#ECB21F" d="M206.946,40.517c-0.334,0.1-0.255-0.492-0.131,0.491c0.039-0.046,0.061-0.059,0.089-0.085
				C206.904,40.836,206.914,40.717,206.946,40.517z"/>
			<path fill="#ECB21F" d="M206.904,40.923C206.903,41.343,207.197,40.667,206.904,40.923L206.904,40.923z"/>
			<path fill="#ECB21F" d="M206.981,38.96c0,0,0.037,0.151,0.08,0.301c0.054,0.149,0.107,0.3,0.107,0.3
				c0.104-0.041,0.182-0.179,0.252-0.279c0.08-0.099,0.143-0.162,0.19-0.062C207.584,38.656,207.371,38.708,206.981,38.96z"/>
			<path fill="#ECB21F" d="M206.508,38.292l0.052,0.323C206.65,38.581,206.696,38.514,206.508,38.292z"/>
			<path fill="#ECB21F" d="M206.679,39.286c0,0-0.012-0.042-0.028-0.105c-0.014-0.063-0.024-0.145-0.038-0.229
				c-0.026-0.168-0.053-0.337-0.053-0.337c-0.152,0.05-0.424,0.005,0.023,0.305C206.355,38.818,206.543,38.99,206.679,39.286z"/>
			<path fill="#ECB21F" d="M206.501,39.617c-0.229,0.288-0.411,0.708-0.61,0.074c-0.014,0.289,0.012,0.497,0.064,0.629
				c0.063,0.135,0.142,0.191,0.217,0.178c0.08-0.014,0.136-0.1,0.205-0.245C206.441,40.106,206.489,39.895,206.501,39.617z"/>
			<path fill="#ECB21F" d="M204.202,42.559c0,0-0.06,0.129-0.119,0.257c-0.029,0.064-0.057,0.129-0.08,0.178
				s-0.035,0.081-0.035,0.081l0.333,0.409c-0.077-0.1-0.063-0.344-0.025-0.556C204.312,42.717,204.333,42.539,204.202,42.559z"/>
			<path fill="#ECB21F" d="M208.527,35.854c-0.145-0.112-0.519-0.047-0.748-0.106c0,0-0.002,0.029,0.002,0.074
				c0.002,0.045,0.006,0.105,0.01,0.165c0.006,0.117,0.012,0.235,0.012,0.235c0.098-0.074,0.212-0.192,0.331-0.28
				C208.267,35.859,208.401,35.808,208.527,35.854z"/>
			<path fill="#ECB21F" d="M207.779,35.748l0.025-0.708C207.501,35.539,207.582,35.695,207.779,35.748z"/>
			<path fill="#ECB21F" d="M205.624,37.952c0,0,0.092,0.312,0.186,0.622c0.047,0.15,0.093,0.301,0.128,0.414
				c0.04,0.113,0.072,0.187,0.072,0.187s-0.005-0.022-0.019-0.06c-0.014-0.039-0.034-0.094-0.047-0.16
				c-0.031-0.132-0.073-0.31-0.115-0.486c-0.082-0.367-0.164-0.733-0.164-0.733L205.624,37.952z"/>
			<path fill="#ECB21F" d="M209.746,33.882c0,0,0.033,0.128,0.066,0.258c0.031,0.127,0.07,0.255,0.07,0.255
				s-0.014-0.054-0.025-0.132c-0.015-0.079-0.033-0.185-0.051-0.292c-0.034-0.217-0.068-0.434-0.068-0.434L209.746,33.882z"/>
			<path fill="#ECB21F" d="M210.665,32.627c0.094,0.419,0.661,0.13,0.644,0.473c0.054-0.086,0.096-0.18,0.127-0.28
				c0.038-0.094,0.067-0.193,0.091-0.295c0.045-0.204,0.066-0.422,0.09-0.633C211.481,32.249,211.175,32.443,210.665,32.627z"/>
			<path fill="#ECB21F" d="M211.757,31.232c-0.085,0.17-0.113,0.41-0.141,0.661C211.691,31.706,211.738,31.492,211.757,31.232z"/>
			<path fill="#ECB21F" d="M208.437,34.127c0.119,0.015,0.411,0.085,0.697-0.144l-0.555-0.068
				C208.535,33.98,208.485,34.053,208.437,34.127z"/>
			<path fill="#ECB21F" d="M208.561,33.914l0.019,0.001c0.079-0.114,0.145-0.21,0.198-0.286c0.057-0.075,0.104-0.125,0.131-0.157
				c-0.025,0.027-0.063,0.072-0.124,0.141C208.73,33.688,208.655,33.785,208.561,33.914z"/>
			<path fill="#ECB21F" d="M208.4,34.18c0.013-0.021,0.022-0.033,0.036-0.053C208.382,34.121,208.359,34.125,208.4,34.18z"/>
			<path fill="#ECB21F" d="M206.605,36.396c-0.111-0.456-0.048-1.386-0.772-0.784C206.037,36.017,206.447,35.686,206.605,36.396z"/>
			<path fill="#ECB21F" d="M207.685,34.124c0,0-0.128,0.132-0.23,0.282c-0.108,0.145-0.217,0.291-0.217,0.291
				c0.125,0.05,0.354,0.031,0.39,0.267c0,0,0.01-0.21,0.021-0.42C207.65,34.329,207.685,34.124,207.685,34.124z"/>
			<polygon fill="#ECB21F" points="207.737,33.742 207.685,34.124 207.865,33.921 			"/>
			<path fill="#ECB21F" d="M210.591,31.689c0.057-0.36,0.277-0.609,0.522-0.895c-0.354,0.205-0.688,0.463-0.973,0.738
				C210.219,31.686,210.303,31.996,210.591,31.689z"/>
			<path fill="#ECB21F" d="M209.51,32.686c0.003-0.024,0.014-0.048,0.021-0.069C209.468,32.62,209.439,32.639,209.51,32.686z"/>
			<path fill="#ECB21F" d="M214.1,28.649c-0.031-0.013-0.065-0.037-0.098-0.052c0.012,0.028,0.019,0.052,0.032,0.083
				C214.032,28.679,214.1,28.649,214.1,28.649z"/>
			<path fill="#ECB21F" d="M210.024,31.517c-0.27,0.165-0.301,0.387-0.295,0.618c0.11-0.202,0.24-0.408,0.411-0.602
				C210.107,31.467,210.074,31.429,210.024,31.517z"/>
			<path fill="#ECB21F" d="M212.361,30.414c-0.185,0.011-0.37,0.057-0.565,0.111C212.016,30.551,212.397,30.549,212.361,30.414z"/>
			<path fill="#ECB21F" d="M209.704,32.631c-0.004,0.016-0.005,0.032-0.012,0.048C209.84,32.675,209.791,32.65,209.704,32.631z"/>
			<path fill="#ECB21F" d="M209.704,32.631c0.044-0.16,0.029-0.331,0.025-0.496c-0.092,0.164-0.16,0.326-0.199,0.482
				C209.581,32.612,209.646,32.619,209.704,32.631z"/>
			<path fill="#ECB21F" d="M213.693,25.201c0.069,0.227-0.053,0.545-0.304,0.793c-0.252,0.25-0.64,0.416-1.103,0.422
				c-0.493,0.716,0.8,1.735,1.715,2.181c-0.081-0.191-0.182-0.348,0.333-0.927c-0.171-0.053-0.604-0.009-0.951-0.006
				c-0.342,0.01-0.611-0.05-0.443-0.403c0.182-0.191,0.334-0.288,0.458-0.342c0.123-0.055,0.219-0.064,0.307-0.051
				c0.174,0.025,0.318,0.135,0.588,0.135c-0.311-0.162-0.134-0.514,0.089-0.881c0.223-0.363,0.474-0.777,0.201-1.128
				c0,0-0.189,0.163-0.377,0.326c-0.095,0.081-0.187,0.162-0.257,0.222c-0.066,0.066-0.11,0.11-0.11,0.11
				C213.762,25.539,213.983,25.193,213.693,25.201z"/>
			<path fill="#ECB21F" d="M212.849,29.261l-0.199,0.217c0.158-0.061,0.304-0.095,0.49-0.088c0.185,0.007,0.4,0.039,0.673,0.086
				c0.27-0.437,0.27-0.643,0.222-0.795c0,0-0.308,0.171-0.615,0.343c-0.155,0.084-0.31,0.169-0.425,0.233
				c-0.111,0.072-0.186,0.12-0.186,0.12L212.849,29.261z"/>
			<path fill="#ECB21F" d="M211.632,30.261c-0.077-0.268-0.018-0.564-0.013-0.806c0.009-0.236-0.048-0.434-0.4-0.519
				c-0.673,0.607-0.213,0.737-0.468,1.239c0.497-0.501,0.465-0.382,0.431-0.191c-0.036,0.191-0.064,0.445,0.403,0.239
				c-0.148,0.239-0.313,0.412-0.472,0.572c0.228-0.11,0.457-0.202,0.683-0.27c-0.016-0.001-0.028-0.002-0.043-0.005l-0.003,0.005
				l-0.005-0.007c-0.085-0.012-0.125-0.029-0.051-0.042c0-0.008,0.01-0.021,0.016-0.026c-0.039-0.061-0.061-0.125-0.077-0.188
				c0.365-0.172,0.13,0.064,0.077,0.188c0.012,0.021,0.019,0.047,0.035,0.068c0.003,0.001,0.007,0.001,0.008,0.001
				c0,0,0.053-0.067,0.133-0.168c0.08-0.099,0.178-0.244,0.3-0.365c0.231-0.254,0.464-0.509,0.464-0.509
				c-0.137,0.055-0.276,0.14-0.442,0.262c-0.082,0.062-0.174,0.13-0.271,0.215C211.845,30.045,211.744,30.147,211.632,30.261z"/>
			<path fill="#ECB21F" d="M205.156,34.417c0.063-0.022,0.096-0.005,0.131,0.007C205.277,34.309,205.257,34.255,205.156,34.417z"/>
			<path fill="#ECB21F" d="M205.729,33.989c0.012,0.134,0.15,0.309-0.064,0.602c-0.282,0.211-0.22-0.107-0.377-0.167
				c0.004,0.126,0.014,0.344,0.078,0.459c0.068,0.118,0.186,0.128,0.439-0.122l-0.015-0.124c0.448-0.47,1.343-0.823,1.364-0.688
				C206.665,33.862,206.322,33.838,205.729,33.989z"/>
			<path fill="#ECB21F" d="M208.48,31.632c0,0,0.154-0.27,0.308-0.539c0.078-0.137,0.155-0.274,0.214-0.376
				c0.057-0.104,0.101-0.169,0.101-0.169s-0.051,0.007-0.118,0.024c-0.07,0.017-0.162,0.039-0.254,0.061
				c-0.188,0.047-0.376,0.093-0.376,0.093l0.221,0.152C208.03,31.343,208.382,31.438,208.48,31.632z"/>
			<path fill="#ECB21F" d="M214.338,28.813l0.133,0.537c0,0,0.049-0.238,0.096-0.476c0.053-0.243,0.108-0.485,0.108-0.485
				L214.338,28.813z"/>
			<polygon fill="#ECB21F" points="215.604,28.12 215.744,28.568 215.979,28.162 			"/>
			<path fill="#ECB21F" d="M235.443,17.627c0,0-0.085-0.036-0.168-0.073c-0.083-0.037-0.172-0.067-0.172-0.067
				C235.257,17.563,235.354,17.61,235.443,17.627z"/>
			<path fill="#ECB21F" d="M237.109,19.461l0.214-0.1C237.154,19.352,237.053,19.375,237.109,19.461z"/>
			<path fill="#ECB21F" d="M237.333,47.615c-0.456,0.509-1.182,1.038-0.648,1.013l0.523-0.127
				C237.14,48.127,237.218,47.849,237.333,47.615z"/>
			<path fill="#ECB21F" d="M244.45,39.436c-0.057,0.05-0.112,0.101-0.169,0.153c0.166,0.15,0.324,0.292,0.463,0.419
				C244.656,39.835,244.555,39.641,244.45,39.436z"/>
			<path fill="#ECB21F" d="M242.355,38.902c0,0,0.098-0.173,0.188-0.347c0.092-0.174,0.183-0.348,0.183-0.348
				C242.602,38.364,242.486,38.586,242.355,38.902z"/>
			<path fill="#ECB21F" d="M223.289,11.909c0,0-0.123,0.106-0.246,0.212c-0.122,0.112-0.242,0.225-0.242,0.225
				C223.4,12.457,223.188,12.155,223.289,11.909z"/>
			<path fill="#ECB21F" d="M229.853,28.693c0.239,0.392,0.452,0.636,0.672,0.805C230.293,29,230.18,28.39,229.853,28.693z"/>
			<path fill="#ECB21F" d="M240.083,14.548c-0.253-0.121-0.407-0.126-0.483-0.04C239.853,14.634,240.031,14.675,240.083,14.548z"/>
			<path fill="#ECB21F" d="M231.433,30.18c-0.023-0.083-0.059-0.145-0.089-0.223c-0.142-0.056-0.277-0.114-0.41-0.191
				c-0.129-0.08-0.269-0.161-0.409-0.268c0.043,0.093,0.091,0.183,0.146,0.263c0.051,0.087,0.107,0.168,0.176,0.233
				C230.984,30.125,231.168,30.199,231.433,30.18z"/>
			<path fill="#ECB21F" d="M190.872,39.825c-0.02,0.04-0.025,0.086-0.051,0.122C190.892,39.952,190.892,39.899,190.872,39.825z"/>
			<path fill="#ECB21F" d="M190.397,56.558c-0.1-0.135-0.217-0.381-0.324-0.61C190.091,56.075,190.178,56.264,190.397,56.558z"/>
			<path fill="#ECB21F" d="M221.217,26.998C220.921,27.042,221.174,27.052,221.217,26.998L221.217,26.998z"/>
			<path fill="#ECB21F" d="M219.472,25.129c0.063-0.07,0.107-0.152,0.101-0.271C219.562,24.985,219.525,25.071,219.472,25.129z"/>
			<path fill="#ECB21F" d="M235.993,30.31c0.005,0.009,0.012,0.016,0.018,0.026C236.025,30.187,236.021,30.213,235.993,30.31z"/>
			<path fill="#ECB21F" d="M220.75,26.801c0.12,0.053,0.253,0.087,0.397,0.117C221.082,26.877,220.963,26.844,220.75,26.801z"/>
			<path fill="#ECB21F" d="M220.83,27.037c-0.104-0.013-0.187-0.018-0.267-0.023C220.534,27.102,220.572,27.153,220.83,27.037z"/>
			<path fill="#ECB21F" d="M221.636,26.964c-0.172,0.011-0.332-0.012-0.488-0.047c0.061,0.034,0.086,0.063,0.069,0.08
				C221.306,26.988,221.43,26.977,221.636,26.964z"/>
			<path fill="#ECB21F" d="M200.507,15.693c-0.029,0-0.057,0.007-0.09,0.004C200.251,16.072,200.36,15.956,200.507,15.693z"/>
			<path fill="#ECB21F" d="M241.263,57.688c-0.001-0.02-0.011-0.031-0.013-0.051c-0.01,0.018-0.023,0.039-0.032,0.055
				L241.263,57.688z"/>
			<path fill="#ECB21F" d="M237.561,54.813c0.123,0.256,0.165,0.399,0.156,0.518c0.005,0.076-0.026,0.089-0.068,0.09
				c1.107,0.813,2.215,1.625,3.436,2.52c0.044-0.099,0.085-0.166,0.134-0.249c-0.278,0.02-0.553,0.027-0.579,0.125
				c-0.865-0.595-1.73-1.19-2.644-1.858c0.163,0.196,0.341,0.385,0.533,0.563c0,0-0.04-0.122-0.114-0.288
				c-0.037-0.085-0.084-0.176-0.137-0.277c-0.052-0.108-0.111-0.221-0.172-0.329c-0.123-0.219-0.259-0.419-0.366-0.563
				c-0.054-0.071-0.099-0.131-0.13-0.178C237.579,54.839,237.561,54.813,237.561,54.813z"/>
			<path fill="#ECB21F" d="M230.546,14.205c0,0,0.122,0.198,0.242,0.397c0.062,0.096,0.117,0.203,0.157,0.279
				c0.043,0.077,0.069,0.129,0.069,0.129c-0.3,0.029-0.559,0.032-0.77,0.023c-0.21-0.01-0.371-0.031-0.484-0.031
				c-0.226,0.001-0.255,0.096-0.098,0.555c0.22-0.339,0.5-0.425,0.818-0.384c0.312,0.05,0.646,0.244,0.985,0.428
				c0.344,0.178,0.655,0.401,0.971,0.472c0.309,0.077,0.606,0.027,0.872-0.277l0.214,0.602c-0.111-0.107-0.188-0.047-0.295-0.154
				c0.167,0.626,0.49,0.51,0.902,0.378c0.414-0.138,0.891-0.265,1.335,0.277c0.28,0.408,0.332,0.822-0.022,0.729l1.028,0.461
				c0.18,0.252-0.069,0.382-0.255,0.141c0,0,0.078,0.065,0.185,0.169c0.107,0.103,0.253,0.241,0.398,0.379
				c0.144,0.138,0.292,0.274,0.398,0.38c0.102,0.109,0.169,0.182,0.169,0.182l-0.044,0.021c0.334,0.015,0.972,0.184,1.266,0.293
				c0.052,0.479-0.257-0.068-0.359,0.141c0,0,0.055,0.029,0.132,0.076c0.077,0.048,0.182,0.112,0.284,0.175
				c0.211,0.13,0.421,0.259,0.421,0.259c-0.141,0.534-0.886,0.152-1.196-0.364c-0.393,0.807-0.233,0.885,0.092,1.02
				c0.156,0.069,0.364,0.144,0.518,0.339c0.154,0.193,0.279,0.497,0.3,0.975l-0.589-0.57c-0.258,0.46-0.237,0.76-0.168,1.082
				c0.048,0.326,0.173,0.667,0.091,1.155c0.107-0.152,0.221-0.671,0.415-1.114c0.192-0.439,0.443-0.791,0.834-0.471
				c0.007,0.145,0.036,0.3,0.131,0.455c0.047,0.078,0.109,0.156,0.195,0.234c0.079,0.08,0.174,0.162,0.298,0.243
				c-0.258,0.121-0.31,0.276-0.26,0.467c0.047,0.19,0.2,0.413,0.318,0.711l-0.724,0.229c0.425,0.542,0.787,0.361,1.23,0.642
				c0.155,0.763-0.354,1.071-0.792,1.376c0.093,0.591,0.269,0.335,0.483,0.089c0.212-0.244,0.461-0.482,0.716,0.213
				c-0.027,1.072,0.413,1.704,1.062,2.899c-0.158,0.776-0.476-0.062-0.655,0.234l0.688,0.571c0.007,0.162-0.184,0.132-0.28,0.119
				c0.302,0.525,0.759-0.049,1.057,0.82c0.431,0.08,0.176,0.574-0.082,1.162c-0.244,0.589-0.501,1.263-0.007,1.803
				c-0.205,0.277-0.469-0.119-0.76-0.028c0.646,1.497,0.474,1.279,1.285,2.558c0,0-0.127,0.267-0.268,0.53
				c-0.136,0.263-0.273,0.525-0.273,0.525c0.303-0.379,0.611-0.314,0.906-0.032c0.301,0.283,0.58,0.785,0.818,1.26
				c0.294-0.269,0.554-0.503,0.679-0.664l0.296,1.506c-0.142,0.168-0.382-0.006-0.681-0.271c0.057,0.104,0.109,0.204,0.157,0.282
				c-0.33,0.5-0.736,0.183-1.123-0.219c0.161-0.163,0.333-0.324,0.503-0.482c-0.432-0.394-0.918-0.754-1.366-0.709
				c0.081,0.097,0.143,0.28,0.17,0.478c-0.118-0.101-0.225-0.167-0.303-0.129c-0.084,0.042,0.073,0.199,0.25,0.446l-0.866,0.25
				l0.326,0.105c0,0-0.176,0.444-0.353,0.887c-0.086,0.222-0.181,0.44-0.25,0.604c-0.07,0.164-0.116,0.273-0.116,0.273
				c0.677,1.391,1.762,2.752,1.649,4.95c-0.49-0.651-0.964-0.321-1.676-0.504c0.444-0.197,0.436-0.62,0.37-1.11
				c-0.067-0.493-0.217-1.057-0.05-1.577c-0.17,0.545-0.498,0.362-0.593,0.204c0,0,0.093,0.502,0.186,1.004
				c0.082,0.505,0.164,1.012,0.164,1.012c-0.578-0.161-0.521,0.312-0.874,0.741c1.245-0.112,0.464,1.578,0.586,2.426
				c-0.401-0.063-0.726-0.345-0.406-1.24c-0.555,0.401-0.313,0.803-0.048,1.229c0.268,0.424,0.529,0.86,0.017,1.245
				c0.058-0.227,0.153-0.331-0.014-0.477c0.191,0.633-0.512,1.803-0.736,1.39l0.065-0.221c-0.313,0.699-0.716,1.768-1.006,2.68
				c-0.281,0.928-0.466,1.665-0.118,2.058c-0.11-0.069-0.894-0.852-1.028-1.016c0.093,0.204,0.183,0.439,0.261,0.644
				c0.08,0.212,0.152,0.434,0.216,0.668c0.059,0.215,0.106,0.445,0.137,0.691c0.029,0.23,0.03,0.469-0.415,0.084
				c0.146,0.22,0.291,0.439,0.688,0.73c-0.348-0.413-0.707-0.801-1.07-1.187c0.394,0.219,1.147,0.213,1.825,0.32
				c0.675,0.111,1.284,0.333,1.348,1.099c0.223-0.376,0.481-0.844,0.355-1.742c-0.175,0.25-1.367,0.404-1.364,0.027
				c1.143-0.798,0.648-0.577,1.678-1.675c-0.253,0.371-1.509-0.31-1.37-0.92c0.187,0.132,1.333,0.155,1.438,0.413
				c0,0-0.27-0.447-0.539-0.896c-0.271-0.442-0.553-0.876-0.553-0.876c0.188,0.422,1.109,0.221,1.532-0.095
				c-0.276,0.136,0.188-1.389,0.085-1.836c0,0-0.092,0.165-0.185,0.329c-0.094,0.162-0.188,0.324-0.188,0.324
				c0.187-0.896-0.241-1.387-0.699-1.857c-0.229-0.235-0.461-0.468-0.625-0.749c-0.17-0.281-0.276-0.61-0.241-1.044
				c0.265,0.213,1.677,0.592,1.872-0.327c-0.341-0.22-1.155-0.699-1.956-1.281c-0.814-0.586-1.606-1.265-1.921-1.973l0.374-0.309
				c0,0-0.032-0.068-0.08-0.17c-0.052-0.103-0.119-0.238-0.188-0.373c-0.137-0.268-0.274-0.537-0.274-0.537
				c0.543,0.29,1.41,0.889,2.216,1.602c0.412,0.354,0.807,0.733,1.148,1.101c0.344,0.366,0.651,0.72,0.855,1.016
				c0.31-0.691,0.46-0.196,0.404-1.238c0.356-0.384,0.568,0.558,0.596,0.872c0,0,0.046-0.619,0.09-1.238
				c0.026-0.625,0.051-1.249,0.051-1.249c-0.768,0.159-0.965-1.822-1.615-1.647c0,0,0.268,0.637,0.537,1.274
				c0.254,0.641,0.493,1.298,0.493,1.298c-0.394,0.071-0.98-0.286-1.462-0.848c-0.235-0.282-0.475-0.614-0.637-0.978
				c-0.081-0.183-0.15-0.374-0.197-0.57c-0.056-0.195-0.091-0.398-0.101-0.605c0.256-0.466,1.449,0.128,1.709,0.068
				c-0.152-0.096-0.337-0.485-0.463-0.87c-0.127-0.385-0.223-0.77-0.139-0.865c0,0,0.139,0.163,0.275,0.325
				c0.141,0.165,0.275,0.331,0.275,0.331c0.065-0.506-0.271-0.856-0.548-1.226c-0.278-0.375-0.537-0.761-0.298-1.423
				c-0.034-0.396,0.65-1.459,0.183-1.398c-0.675,0.926-3.367,1.74-4.128,1.572c0.005-0.033,0.029-0.177,0.064-0.378
				c0.036-0.206,0.087-0.473,0.122-0.749c0.077-0.552,0.202-1.189,0.313-1.463c0.209-0.414,0.689-0.374,1.173-0.293
				c0.476,0.08,0.938,0.202,1.13-0.176c-0.205,0.053-0.594-0.187-0.738-0.291c0.005-0.46,0.694-0.097,0.231-0.916
				c-0.763,0.184-0.788-1.71-0.796-0.109c-0.309-0.345-0.379-0.57-0.44-0.828c-0.029-0.129-0.057-0.267-0.11-0.429
				c-0.055-0.161-0.15-0.339-0.295-0.561c-0.135,0.278-0.643,0.302-1.181,0.209c-0.527-0.106-1.135-0.284-1.465-0.538
				c0.194-0.085,0.297-0.394,0.339-0.543c-0.06-0.09-0.117-0.177-0.173-0.262c-0.061-0.082-0.12-0.161-0.176-0.238
				c-0.114-0.156-0.221-0.307-0.321-0.455c-0.1-0.15-0.194-0.294-0.288-0.435c-0.092-0.144-0.2-0.267-0.297-0.4
				c-0.202-0.261-0.404-0.52-0.632-0.786c-0.237-0.252-0.517-0.491-0.836-0.749c0.001-0.125-0.12-0.358-0.188-0.571
				c-0.075-0.201-0.091-0.386,0.155-0.432c-0.288-0.018-0.63,0.086-1.07-0.177c-0.484-1.146,1.04,0.546,0.847-0.58
				c-0.159,0.176-0.536,0.123-0.967,0.012c-0.438-0.097-0.949-0.216-1.337-0.259c-0.061,0.376,0.282,0.598,0.753,0.74
				c0.46,0.158,1.029,0.287,1.428,0.365c-0.283,0.413-0.841,0.661-1.492,0.769c-0.163,0.027-0.33,0.042-0.506,0.054
				c-0.18,0.02-0.366,0.032-0.553,0.034c-0.378,0.007-0.758-0.032-1.148-0.095c-1.222-0.241-0.238-0.8-0.492-0.751
				c-0.263-0.131-0.497-0.228-0.715-0.27c-0.22-0.035-0.416-0.038-0.593-0.02c-0.356,0.037-0.636,0.157-0.889,0.267
				c-0.259,0.119-0.498,0.243-0.77,0.255c-0.135,0.008-0.279-0.011-0.44-0.067c-0.081-0.028-0.165-0.064-0.256-0.113
				c-0.092-0.044-0.19-0.089-0.297-0.152c-0.306-0.367-0.276-0.683-0.166-0.964c0.11-0.282,0.299-0.529,0.247-0.769
				c0.548-0.057,0.929,0.154,1.25,0.359c0.321,0.215,0.595,0.41,0.928,0.52c0,0-0.047-0.036-0.114-0.087
				c-0.069-0.055-0.164-0.122-0.262-0.181c-0.194-0.123-0.389-0.246-0.389-0.246c0.188-0.061,0.469-0.103,0.739-0.067
				c0.269,0.042,0.531,0.133,0.688,0.281c-0.118-0.184-0.423-0.381-0.85-0.546c-0.437-0.142-0.981-0.307-1.576-0.423
				c-0.3-0.051-0.607-0.103-0.918-0.156c-0.153-0.024-0.31-0.062-0.465-0.079c-0.155-0.019-0.312-0.036-0.463-0.055
				c-0.306-0.04-0.604-0.087-0.888-0.145c-0.283-0.047-0.553-0.084-0.8-0.149c-0.348,0.22-0.923,0.45-0.631,0.702l0.597-0.099
				c0.278,0.252-0.003,0.435-0.246,0.582c-0.245,0.147-0.456,0.259-0.09,0.373c-0.377,0.171-0.757,0.469-1.167,0.652
				c-0.417,0.174-0.853,0.338-1.39,0.284l-0.338-0.68c0.069,0.204,0.768,0.306,1.026,0.034c-0.194,0.199-0.632,0.026-1.083-0.064
				c-0.446-0.081-0.894-0.039-1.006,0.476c0,0,0.211,0.075,0.425,0.15c0.206,0.077,0.414,0.153,0.414,0.153
				c-0.318,0.275-0.646,0.642-0.988,0.959c-0.336,0.344-0.703,0.594-1.15,0.646c0.311,0.252,0.353,0.232,0.422,0.198
				c0.07-0.029,0.18-0.055,0.597,0.247c-0.206-0.206-0.183-0.348-0.042-0.462c0.14-0.111,0.389-0.207,0.642-0.258
				c0.492-0.121,0.954-0.245,0.406-0.669c0.216,0.197,0.39,0.3,0.552,0.363c0.163,0.071,0.311,0.093,0.463,0.11
				c0.151,0.017,0.309,0.028,0.483,0.077c0.175,0.048,0.366,0.134,0.587,0.329c-0.052-0.236-0.337-0.428,0.378-0.377
				c0.026-0.073,0.093-0.169,0.138-0.227c0.022,0.005,0.029,0.008,0.049,0.014c-0.015-0.009-0.026-0.016-0.041-0.024
				c0.028-0.039,0.029-0.047-0.016-0.009c-0.177-0.087-0.329-0.199-0.401-0.327c0.152-0.284,0.528-0.476,0.921-0.587
				c0.393-0.104,0.797-0.179,1.007-0.326c0.449,0.108-0.193,0.277,0.048,0.529c0,0,0.038-0.026,0.095-0.068
				c0.059-0.036,0.134-0.084,0.212-0.132c0.157-0.096,0.313-0.191,0.313-0.191c0.017,0.268,0.296,0.507,0.432,0.709
				c0.137,0.202,0.131,0.369-0.372,0.493c0,0,0.222,0.02,0.442,0.04c0.11,0.008,0.222,0.018,0.304,0.037
				c0.083,0.015,0.137,0.025,0.137,0.025c0.24,0.188,0.527,0.336,0.813,0.416c0.284,0.083,0.562,0.142,0.802,0.077
				c0.188,0.106,0.48,0.015,0.672-0.045c0.19-0.052,0.276-0.1,0.042,0.042c0,0,0.359,0.031,0.719,0.062
				c0.184,0.016,0.366,0.031,0.502,0.042c0.136,0.017,0.226,0.037,0.226,0.037l-0.035,0.129c0.316,0.154,0.661,0.248,1.025,0.329
				c0.354,0.095,0.706,0.205,1.068,0.328c0.37,0.11,0.686,0.321,0.988,0.564c0.146,0.128,0.294,0.257,0.407,0.429
				c0.111,0.175,0.209,0.367,0.285,0.58c0.111,0.045,0.224,0.09,0.34,0.137c0.116,0.048,0.235,0.105,0.342,0.188
				c0.222,0.16,0.452,0.375,0.679,0.688c0,0-0.058,0.106-0.115,0.212c-0.058,0.108-0.118,0.215-0.118,0.215
				c0.243,0.163,0.449,0.557,0.639,0.898c0.168,0.361,0.342,0.653,0.612,0.616c-0.152,0.295-0.172,0.606-0.089,0.905
				c0.042,0.15,0.109,0.298,0.193,0.446c0.086,0.145,0.164,0.311,0.265,0.465c0.099,0.157,0.206,0.312,0.314,0.466
				c0.111,0.153,0.196,0.323,0.291,0.477c0.177,0.316,0.34,0.606,0.367,0.877l0.575-0.175c0.227,0.705,0.607,1.331,1.072,2.204
				l0.503-0.187c0.307,0.361,0.355,0.917,0.313,1.548c-0.018,0.624-0.126,1.318-0.01,1.98c-0.207-0.069-0.205-0.409-0.115-0.665
				c-0.122,0.22-0.192,0.431-0.225,0.639c-0.041,0.211-0.042,0.418-0.016,0.624c0.024,0.206,0.078,0.409,0.146,0.612
				c0.058,0.207,0.133,0.412,0.209,0.617c0.159,0.409,0.312,0.822,0.37,1.229c0.067,0.404,0.032,0.803-0.192,1.173
				c0.191,0.376,0.124,0.646-0.022,0.903c0-0.035-0.01-0.066-0.024-0.093c-0.008,0.037-0.011,0.094-0.012,0.152
				c-0.099,0.161-0.21,0.325-0.303,0.505c0.135-0.15,0.246-0.295,0.301-0.423c-0.001,0.288,0.056,0.726,0.155,1.162l-0.581,0.146
				c0.006,0.035,0.002,0.063,0.01,0.099c-0.236,0.401,0.247,0.356,0.691,0.162c0.081,0.224,0.177,0.431,0.299,0.598
				c-0.474,0.137-0.422,0.423-0.378,0.729c0.039,0.304,0.063,0.629-0.45,0.806c0.227,0.171,0.242,0.722,0.327,1.277
				c0.074,0.555,0.213,1.118,0.688,1.318c-0.133-0.007-0.217,0.11-0.185-0.125c-0.192,0.467-0.395,0.924-0.197,1.41l-0.754,0.061
				c0,0,0.186,0.309,0.372,0.618c0.179,0.313,0.361,0.626,0.361,0.626c-0.579,0.537-0.89,0.702-1.287-0.022
				c0.102,0.333,0.156,0.598,0.206,0.729l1.569,4.033l1.524-1.765c0.231-0.271,0.414-0.471,0.543-0.636
				c0.11-0.163,0.205-0.297,0.298-0.446c0.101-0.151,0.156-0.311,0.228-0.526c0.032-0.107,0.064-0.229,0.099-0.368
				c0.022-0.137,0.039-0.292,0.056-0.468l0.345,0.326c0.34-0.507,0.183-1.556,0.668-1.658c0.677-0.33,1.33-1.676,1.873-3.238
				c0.56-1.568,1.044-3.355,1.757-4.707c-0.737,0.13-0.51-0.167-0.231-0.544c0.271-0.377,0.599-0.84,0.084-0.995
				c0.354-0.104,0.608-0.479,0.801,0.043c-0.053-1.532,0.89-2.167,0.123-3.317c0.348-0.13,0.437,0.379,0.648,0.252
				c-0.057-0.13-0.225-0.512-0.011-0.644c0.211-0.131,0.245,0.251,0.356,0.509c0.071-0.777-0.152-1.232-0.503-1.514
				c-0.352-0.281-0.832-0.392-1.297-0.489c0.521-0.718,0.474-1.118-0.103-1.701c0.32-0.244,0.675-0.675,0.727,0.273
				c0.048-0.262,0.194-1.068,0.239-1.821c0.026-0.754-0.045-1.45-0.43-1.477c0.191-0.166,0.051-0.741-0.037-0.879
				c0.018-0.592,0.021-0.917,0.028-1.238c0.005-0.322-0.014-0.641-0.093-1.222l-0.101,0.331c-0.943-0.398-0.261-0.946-0.472-1.874
				l0.095,0.017c0.217-1.108,0.082-1.336-0.009-1.553c-0.094-0.221-0.184-0.427-0.001-1.555l-0.539,0.219
				c-0.612,0.012-0.526-0.469-0.386-1.113c0.073-0.323,0.155-0.685,0.159-1.037c0.007-0.352-0.04-0.694-0.241-0.963
				c0,0-0.044,0.131-0.095,0.261s-0.1,0.26-0.1,0.26c-0.278-0.273-0.029-0.829,0.293-1.444c0.33-0.612,0.664-1.273,0.615-1.646
				c0.044-0.188,0.246,0.175,0.397,0.361c0.009-1.033-0.197-1.034-0.476-0.922c-0.276,0.111-0.634,0.313-1-0.308
				c0.257-0.41,1.081-0.082,0.738-1.042c0.032-0.294-0.588-0.815-1.227-1.388c-0.328-0.282-0.654-0.584-0.903-0.913
				c-0.265-0.315-0.452-0.655-0.485-1.039c-0.082,0.422-0.18,0.821-0.739,0.428c-0.16-0.189-0.293-0.45-0.417-0.748
				c-0.123-0.298-0.238-0.637-0.377-0.954c-0.304-0.608-0.682-1.172-1.352-1.145c-0.028-0.147-0.003-0.237,0.047-0.294
				c-0.701-0.382-2.075-1.386-2.755-1.246c0.179-0.484-0.002-0.865-0.353-1.181c-0.344-0.323-0.891-0.528-1.395-0.735
				c-0.506-0.209-1.021-0.342-1.326-0.558c-0.311-0.208-0.435-0.47-0.206-0.856c0,0-0.517-0.258-1.034-0.517
				c-0.13-0.064-0.26-0.128-0.381-0.188c-0.124-0.054-0.239-0.104-0.34-0.146c-0.197-0.087-0.331-0.144-0.331-0.144l0.137-0.14
				c-0.32-0.188-0.603-0.319-0.855-0.406c-0.256-0.078-0.482-0.108-0.687-0.114c-0.406-0.009-0.727,0.093-1.039,0.199
				c-0.267-0.241,0.021-0.308,0.082-0.385c-0.47-0.271-0.843-0.465-1.164-0.61c-0.162-0.072-0.309-0.132-0.451-0.178
				c-0.145-0.039-0.281-0.067-0.418-0.085c-0.276-0.035-0.553-0.029-0.88,0.011c-0.163,0.021-0.338,0.044-0.533,0.086
				c-0.196,0.047-0.412,0.1-0.653,0.159L224.97,6.86c-0.137,0.056-0.379-0.014-0.704-0.149c-0.325-0.133-0.738-0.297-1.208-0.474
				c-0.234-0.083-0.481-0.179-0.742-0.244c-0.261-0.063-0.531-0.118-0.806-0.156c-0.274-0.038-0.554-0.06-0.832-0.057
				c-0.277,0.015-0.554,0.059-0.822,0.13c0.024-0.065,0.074-0.177,0.248-0.251c-0.608,0.147-1.257,0.079-1.919,0.016
				c-0.662-0.081-1.339-0.237-1.974-0.289c-1.267-0.162-2.355-0.019-2.617,1.088c0,0-0.365,0.176-0.717,0.39
				c-0.351,0.203-0.702,0.407-0.702,0.407c0.984-0.111,0.947,0.133,0.784,0.426c-0.165,0.293-0.453,0.635-0.038,0.734
				c-0.353,0.134-0.854,0.069-1.168-0.063c-0.31-0.119-0.433-0.326,0.014-0.478l0.168,0.076c0.089-1.2-2.448,0.207-2.604-0.523
				c-0.929,0.323-1.874,0.578-2.785,0.911l-0.688,0.23l-0.348,0.112l-0.337,0.13c-0.452,0.172-0.902,0.342-1.35,0.512l-0.337,0.127
				l-0.328,0.144l-0.654,0.29c-0.431,0.199-0.876,0.377-1.289,0.599c-0.417,0.219-0.83,0.443-1.238,0.671
				c-0.203,0.115-0.409,0.227-0.605,0.349l-0.575,0.384l0.829,0.477l-1.061,0.683c-0.389,0.025-0.767-0.292,0.005-0.789
				c-0.338-0.063-0.596,0.243-0.751,0.582c-0.16,0.334-0.197,0.726-0.152,0.806c-0.798,0.402-0.822,0.1-0.689-0.271
				c0.128-0.37,0.411-0.807,0.187-0.646l-0.549,0.514l0.193-0.025c-0.258,0.655-0.066,0.977-0.942,1.619
				c-0.635,0.334-0.616-0.167-0.847-0.006c-0.037-0.048-0.128-0.006-0.336,0.269c0,0-0.321,0.264-0.642,0.527
				c-0.16,0.133-0.32,0.265-0.441,0.365c-0.113,0.108-0.188,0.181-0.188,0.181s0.232-0.003,0.472,0.008
				c0.24,0.014,0.479,0.027,0.479,0.027c-0.159,0.355-0.42,0.632-0.523,0.808c-0.105,0.177-0.041,0.254,0.487,0.26
				c-0.396-0.016-0.877,0.234-1.386,0.625c-0.126,0.098-0.257,0.203-0.386,0.316c-0.125,0.116-0.24,0.249-0.362,0.381
				c-0.239,0.267-0.479,0.553-0.71,0.84c-0.48,0.559-0.839,1.198-1.168,1.677c-0.164,0.243-0.31,0.453-0.437,0.614
				c-0.131,0.16-0.219,0.287-0.303,0.335c-0.036,0.574-0.172,1.07-0.381,1.557c-0.112,0.239-0.206,0.495-0.327,0.75
				c-0.118,0.256-0.249,0.518-0.39,0.792c0.257-0.224,1.029-0.064,0.521,0.831c-0.324-0.235-0.588-0.267-0.793-0.158
				c-0.205,0.108-0.37,0.35-0.535,0.634c-0.163,0.285-0.329,0.613-0.54,0.901c-0.205,0.289-0.428,0.548-0.766,0.682
				c0.47-0.273,0.307,0.486,0.203,1.192c-0.084,0.713-0.069,1.37,0.57,0.896c-0.299,0.834-0.591-0.074-1.093,0.521
				c0.026,0.278,0.012,0.556,0.005,0.837s-0.034,0.565-0.073,0.853c-0.041,0.289-0.096,0.579-0.161,0.875
				c-0.054,0.296-0.11,0.597-0.166,0.902c-0.061,0.306-0.12,0.617-0.18,0.931c-0.064,0.315-0.089,0.632-0.124,0.954
				c-0.065,0.645-0.101,1.305-0.006,1.958c0.209,0.03,0.509-0.414,0.844,0.127c0,0-0.245,0.355-0.491,0.71
				c-0.122,0.18-0.241,0.362-0.324,0.498c-0.085,0.137-0.143,0.229-0.143,0.229c0.149,0.513,1.241,0.358,0.611,1.363
				c0.161-0.152,0.405-0.375,0.503-0.045c-0.211,2.562,0.542,5.072,1.35,7.486c0.817,2.431,1.671,4.793,1.844,7.508
				c0.087-0.795,0.313-0.39,0.54,0.084c-0.052-0.352,0.472-0.207,0.702-0.385c0,0,0.008,0.141,0.021,0.351
				c0.018,0.21,0.041,0.49,0.063,0.77c0.045,0.563,0.11,1.126,0.11,1.126c0.434,0,0.704,0.497,0.965,0.978
				c0.266,0.479,0.526,0.944,0.908,0.856l-0.441-0.523c0.599,0.181,0.881-0.335,1.154-0.927c0.272-0.595,0.553-1.272,1.086-1.476
				c-0.661-0.188-0.612-0.914-0.613-1.675c-0.007-0.38-0.025-0.769-0.16-1.114c-0.138-0.346-0.396-0.646-0.872-0.861
				c0.082-0.401,0.448,0.124,0.62-0.146c-0.596-0.164-0.88-0.563-0.988-1.453l0.147,0.049c-0.497-1.109-0.696-1.965-0.838-2.865
				c-0.078-0.449-0.119-0.916-0.183-1.432c-0.071-0.515-0.12-1.088-0.213-1.754l-0.495,0.33c-0.077-0.58,0.07-0.74,0.15-1.035
				c-0.485-0.228-0.412,0.173-0.34,0.583c0.083,0.406,0.159,0.827-0.372,0.649c0.442-0.52,0.219-1.514,0.04-2.489
				c-0.078-0.488-0.15-0.97-0.128-1.373c0.034-0.404,0.166-0.728,0.47-0.899c-0.115-0.865-0.607,0.346-0.724-0.529l0.314-0.273
				l-0.471-0.169c0.021-0.586,0.431-0.914,0.726-0.959c-0.022,0.141,0.119,0.381,0.158,0.524c0.178-0.385,0.074-0.89-0.013-1.337
				c-0.09-0.446-0.213-0.835-0.15-0.963l-0.18,0.833c-0.103-0.581-0.188-1.205-0.178-1.836c0-0.316-0.001-0.638-0.005-0.96
				c0.011-0.321,0.04-0.642,0.057-0.962c0.022-0.32,0.021-0.643,0.051-0.958c0.029-0.315,0.05-0.629,0.059-0.939
				c-0.001-0.628,0.046-1.223-0.025-1.819l-0.292,0.114c-0.038-0.456-0.019-0.769,0.056-1.001c0.067-0.235,0.158-0.398,0.259-0.563
				s0.21-0.332,0.311-0.576c0.1-0.245,0.236-0.55,0.34-1.019l0.035,0.087c-0.114-0.445-0.087-0.993,0.178-1.455
				c0.089,0.556,0.924-0.573,0.978,0.135c0.069-0.469,0.104-0.772,0.112-0.981c0.017-0.207,0.01-0.317-0.025-0.422
				c-0.069-0.209-0.231-0.365-0.349-1.166L192.611,24c-0.141-0.583-0.286-0.718,0.172-1.606c-0.071,0.443,0.158,0.401,0.391,0.385
				c0.231-0.019,0.465-0.01,0.43,0.489c0.483-0.274,0.743-0.605,0.964-0.916c0.219-0.31,0.343-0.636,0.459-0.93
				c0.116-0.292,0.216-0.563,0.409-0.729c0.197-0.162,0.466-0.237,0.879-0.161c-0.132-0.746-0.548-0.552-0.926-0.226
				c-0.094,0.081-0.186,0.168-0.266,0.252c-0.073,0.089-0.14,0.17-0.191,0.233c-0.105,0.125-0.162,0.17-0.13,0.026
				c-0.289,0.044-0.345-0.25-0.259-0.619c0.092-0.363,0.362-0.768,0.63-0.969c0.242-0.234,0.719-0.173,1.261-0.191
				c0.558-0.006,1.205-0.063,1.787-0.609c-0.123,0.103-0.069,0.179-0.19,0.281c0.326-0.082,0.467-0.358,0.654-0.625
				c0.198-0.259,0.432-0.513,0.883-0.547c-0.116-0.843,0.796-0.572,0.331-1.399l-1.074,1.119c0.265-0.363,0.39-0.889,0.639-1.389
				c0.253-0.493,0.656-0.929,1.398-1.131c0.015,0.222-0.194,0.672-0.354,0.954c0.501-0.013,0.558-0.614,1.073-0.628
				c0.208,0.427-0.138,0.732-0.582,1.071c-0.222,0.169-0.469,0.348-0.679,0.552c-0.202,0.217-0.368,0.461-0.438,0.743
				c0.296,0.025,0.521-0.387,0.729-0.643c0.207-0.258,0.367-0.388,0.478,0.156c-0.11-0.711,0.249-0.914,0.668-1.112
				c0.416-0.211,0.919-0.361,1.129-1.078l0.233,0.517c0.099-0.166,0.271-0.584,0.553-0.743l-0.118,0.932
				c0.105-0.25,0.269-0.402,0.458-0.501c0.192-0.097,0.419-0.123,0.643-0.149c0.451-0.05,0.904-0.06,1.19-0.41
				c-1.525,0.851-0.659-0.412-1.518-0.412c0.396-0.429,0.715-0.605,0.99-0.644c0.277-0.038,0.521,0.08,0.771,0.196
				c0.25,0.119,0.512,0.25,0.837,0.272c0.327,0.027,0.707-0.077,1.237-0.346c-0.134,0.099-0.449,0.121-0.682,0.093
				c-0.232-0.031-0.392-0.144-0.212-0.372c0.47-0.084,1.121-0.093,1.48,0.076c0.708-0.35,0.608-0.454,0.385-0.56
				c-0.222-0.098-0.567-0.177-0.308-0.467c0.746,0.452,0.651-0.513,1.274-0.956l0.175,0.544c0.462-0.065,0.705-0.146,0.833-0.272
				c0.129-0.124,0.145-0.28,0.155-0.432c0.021-0.303,0.03-0.593,0.901-0.595c0,0-0.126,0.238-0.252,0.477
				c-0.121,0.236-0.242,0.474-0.242,0.474s0.194-0.105,0.391-0.209c0.099-0.052,0.196-0.104,0.271-0.144
				c0.075-0.034,0.125-0.057,0.125-0.057l-0.028,0.67c0.397-0.327,0.68-0.472,0.975-0.537c0.295-0.064,0.602-0.059,1.063-0.019
				c-0.271-0.371-0.038-1.041,0.788-1.172c0.3,0.13,0.233,0.276,0.24,0.36c0.005,0.08,0.08,0.103,0.653,0.022
				c-0.235,0.378-0.459,0.829-1.012,0.383c-0.027,0.192-0.207,0.39-0.232,0.579c0.314,0.163,0.671,0.111,1.009,0.071
				c0.336-0.051,0.648-0.151,0.851-0.169c-0.157-0.01-0.345-0.027-0.446-0.101c0,0,0.397-0.228,0.793-0.456
				c0.403-0.211,0.82-0.41,0.82-0.41c0.264,0.211,0.056,0.386-0.143,0.558c0.33-0.063,0.56-0.338,1.058-0.381
				c-0.137,0.457-0.12,0.94-0.787,1.167c0,0,0.094-0.033,0.234-0.083c0.143-0.047,0.334-0.124,0.526-0.18
				c0.389-0.109,0.777-0.22,0.777-0.22c0.096,0.208,0.745,0.59,0.535,0.751c0.401,0.177,0.924,0.012,1.502-0.145
				c0.567-0.115,1.198-0.238,1.712,0.061c0.076-0.076,0.207-0.134,0.459-0.145c0.254,0.085,0.494,0.196,0.73,0.31
				c0.233,0.129,0.462,0.26,0.701,0.369c0.239,0.114,0.495,0.186,0.768,0.251c0.275,0.061,0.578,0.079,0.932,0.034
				c0,0,0.095,0.254,0.189,0.509c0.084,0.261,0.169,0.523,0.169,0.523c0.477,0.096,0.363-0.235,0.32-0.555
				c-0.041-0.319-0.012-0.624,0.827-0.446c0.302,0.049,0.459,0.138,0.527,0.237c0.069,0.098,0.053,0.206,0.008,0.318
				c-0.089,0.223-0.287,0.462-0.155,0.655c0.174-0.033,0.384-0.078,0.615-0.11c0.232-0.033,0.482-0.051,0.726-0.013
				c0.485,0.07,0.996,0.269,1.268,0.859c-0.192-0.027-0.328-0.108-0.46-0.19C230.834,14.345,230.706,14.258,230.546,14.205z
				 M239.359,22.332c-0.201-0.154-0.761-0.349-0.56-0.665C239.494,21.555,239.355,21.893,239.359,22.332z M243.178,41.32
				c-0.169-0.213-0.048-0.498,0.2-0.813C243.4,40.755,243.354,41.03,243.178,41.32z M224.565,26.739
				c0.011-0.009,0.019-0.014,0.028-0.024C225.051,27.005,224.891,26.894,224.565,26.739z M223.558,26.344
				c-0.114,0.073-0.114,0.153-0.077,0.235c0.087-0.148,0.323-0.12,0.583-0.039C224.011,26.384,223.887,26.249,223.558,26.344z
				 M195.048,15.104l0.29-0.059C195.015,15.555,195.037,15.336,195.048,15.104z"/>
			<path fill="#ECB21F" d="M242.597,38.969c0.102-0.066,0.21-0.079,0.318-0.089C242.827,38.773,242.716,38.765,242.597,38.969z"/>
			<path fill="#ECB21F" d="M223.381,11.831c-0.011-0.007-0.024-0.008-0.036-0.014c-0.025,0.028-0.043,0.06-0.056,0.092
				L223.381,11.831z"/>
			<path fill="#ECB21F" d="M240.519,33.707c0.039,0.289-0.001,0.472-0.07,0.607C240.582,34.279,240.66,34.115,240.519,33.707z"/>
			<path fill="#ECB21F" d="M218.215,27.724c0,0,0.146-0.076,0.293-0.153c0.075-0.039,0.149-0.078,0.203-0.107
				c0.058-0.031,0.096-0.043,0.096-0.043c-0.3,0.098-0.435,0.012-0.613-0.039C218.241,27.508,218.407,27.665,218.215,27.724z"/>
			<path fill="#ECB21F" d="M211.137,27.137c-0.053,0.125-0.193,0.15-0.244,0.274l0.18,0.197
				C211.452,27.313,211.611,26.933,211.137,27.137z"/>
			<path fill="#ECB21F" d="M217.095,26.049c-0.191-0.442-0.586-0.134-1.04,0.114c0.029-0.012,0.056-0.024,0.085-0.029
				C216.23,26.814,216.65,26.437,217.095,26.049z"/>
			<path fill="#ECB21F" d="M215.949,26.216c-0.145,0.066-0.288,0.143-0.438,0.184C215.561,26.68,215.701,26.362,215.949,26.216z"/>
			<path fill="#ECB21F" d="M222.208,26.586c-0.22-0.119-0.141,0.618-0.262,0.425c-0.119,0.313,0.232,0.107,0.482-0.103
				C222.679,26.71,222.821,26.444,222.208,26.586z"/>
			<path fill="#ECB21F" d="M216.218,24.676l0.365,0.502c0,0,0.036-0.139,0.071-0.278c0.036-0.141,0.078-0.274,0.078-0.274
				s-0.033,0.001-0.081,0.004c-0.048,0.005-0.113,0.011-0.176,0.018C216.347,24.662,216.218,24.676,216.218,24.676z"/>
			<path fill="#ECB21F" d="M220.514,24.255l-0.878-0.081c0.026,0.101-0.076,0.16-0.2,0.231
				C219.963,24.358,220.55,24.434,220.514,24.255z"/>
			<path fill="#ECB21F" d="M219.436,24.406c-0.273,0.038-0.531,0.096-0.664,0.217C218.915,24.592,219.226,24.517,219.436,24.406z"/>
			<path fill="#ECB21F" d="M217.331,24.169l0.285,0.055c0,0,0.153-0.028,0.307-0.057c0.076-0.016,0.153-0.026,0.213-0.031
				c0.058-0.006,0.097-0.011,0.097-0.011C218.229,24.105,217.331,24.169,217.331,24.169z"/>
			<path fill="#ECB21F" d="M229.477,25.96c0,0,0.058,0.012,0.146,0.032c0.088,0.02,0.199,0.06,0.312,0.094
				c0.228,0.072,0.453,0.143,0.453,0.143c0.182-0.135,0.008-0.366-0.343-0.46C229.784,25.779,229.425,25.728,229.477,25.96z"/>
			<path fill="#ECB21F" d="M227.272,23.414c0.228,0.204,0.206,0.336,0.295,0.57l0.247-0.694L227.272,23.414z"/>
			<path fill="#ECB21F" d="M230.123,24.282c0.179-0.177,1.615,0.146,0.4-0.417C230.335,24.005,229.32,23.761,230.123,24.282z"/>
			<polygon fill="#ECB21F" points="239.184,35.89 239.091,35.659 237.962,36.088 			"/>
			<path fill="#ECB21F" d="M243.43,48.821c0.363-1.201-0.723-0.326-0.316-1.403c-0.274-0.292-0.326,0.881-0.562,0.577
				C242.813,48.731,242.613,49.106,243.43,48.821z"/>
			<path fill="#ECB21F" d="M242.552,47.995c-0.043-0.118-0.097-0.242-0.17-0.377C242.449,47.83,242.503,47.932,242.552,47.995z"/>
			<polygon fill="#ECB21F" points="191.073,59.37 191.225,60.179 191.338,59.54 			"/>
			<path fill="#ECB21F" d="M192.578,60.244l-0.572,0.547c0,0,0.848,0.063,0.857,0.078C192.719,60.701,192.496,60.45,192.578,60.244z
				"/>
			<path fill="#ECB21F" d="M238.678,24.498l0.19-0.03c0.149-0.156,0.107-0.287,0.026-0.549L238.678,24.498z"/>
			<polygon fill="#ECB21F" points="234.336,17.636 234.436,17.746 234.689,17.04 			"/>
			<path fill="#ECB21F" d="M227.904,14.537c0.246,0.145,0.614,0.157,0.863,0.308C228.156,14.688,228.188,13.708,227.904,14.537z"/>
		</g>
	</g>
	<g>
		<path fill-rule="evenodd" clip-rule="evenodd" fill="#049DA8" d="M243.921,4.77c-0.663,0.699-1.207,1.696-1.617,2.626
			c-0.989,2.237-1.521,4.563-1.651,6.98c-0.184,3.396,0.096,6.774,0.906,10.074c0.498,2.031,1.133,4.042,2.178,5.886
			c0.101,0.183,0.292,0.414,0.162,0.616c-0.138,0.216-0.417,0.088-0.623,0.057c-2.636-0.392-5.234-0.253-7.795,0.517
			c-2.635,0.791-4.914,2.157-6.895,4.073c-1.146,1.111-2.155,2.306-2.952,3.686c-0.031,0.052-0.111,0.073-0.168,0.106
			c0.014-0.176,0.025-0.356,0.04-0.535c0.344-0.777,0.419-1.625,0.555-2.442c0.449-2.728,1.204-5.372,2.031-8.003
			c1.349-4.29,3.143-8.384,5.537-12.197c1.646-2.623,3.535-5.068,5.709-7.282c1.029-1.048,2.091-2.066,3.161-3.073
			C242.87,5.51,243.513,5.076,243.921,4.77L243.921,4.77L243.921,4.77z"/>
		<path fill-rule="evenodd" clip-rule="evenodd" fill="#049DA8" d="M260.041,3.334c1.243,0.121,2.787,0.306,3.646,0.491
			c4.407,0.94,8.583,2.522,12.64,4.444c2.54,1.203,5.012,2.533,7.418,3.987c0.129,0.079,0.254,0.166,0.513,0.337
			c-7.68-0.7-14.008,1.302-18.171,8.217c-0.435-0.885-0.745-1.783-1.216-2.606c-1.51-2.646-3.295-5.071-5.425-7.263
			c-1.609-1.655-3.359-3.139-5.262-4.423c-2.082-1.407-4.38-2.367-6.88-2.778c-0.126-0.021,0.129-0.005,0,0
			c-0.13,0.004-0.338-0.049-0.784-0.016c1.914-0.404,3.824-0.808,5.787-0.862c0.568-0.015,2.149,0.058,3.127,0.072
			C257.801,3.11,257.676,3.16,260.041,3.334z"/>
		<path fill-rule="evenodd" clip-rule="evenodd" fill="#049DA8" d="M244.127,5.029C244.167,5.01,244.109,5.066,244.127,5.029
			c0.18-0.374,0.292-0.968,0.763-1.036c0.723-0.103,1.475-0.012,2.195,0.151c2.355,0.528,4.567,1.446,6.48,2.905
			c1.947,1.483,3.735,3.155,5.216,5.147c1.383,1.861,2.765,3.719,3.984,5.691c0.525,0.852,1.029,1.721,1.525,2.59
			c0.128,0.219,0.422,0.459,0.235,0.71c-0.141,0.192-0.465,0.058-0.7,0.019c-1.615-0.266-3.229-0.193-4.84,0.03
			c-1.692,0.236-3.284,0.803-4.858,1.434c-1.783,0.715-3.346,1.811-4.784,3.021c-1.301,1.096-2.531,2.323-3.396,3.836
			c-0.168,0.29-0.348,0.728-0.641,0.697c-0.284-0.031-0.363-0.508-0.5-0.809c-1.304-2.873-1.848-5.95-2.351-9.027
			c-0.27-1.645-0.241-3.324-0.274-4.988c-0.042-1.968,0.165-3.918,0.573-5.836c0.267-1.256,0.535-2.521,1.051-3.712
			C243.913,5.607,244.008,5.334,244.127,5.029L244.127,5.029z"/>
		
			<rect x="259.618" y="23.273" transform="matrix(0.9066 -0.4219 0.4219 0.9066 7.9743 113.6079)" fill-rule="evenodd" clip-rule="evenodd" fill="#676767" width="2.16" height="31.024"/>
	</g>
	<g>
		<path opacity="0.8" fill-rule="evenodd" clip-rule="evenodd" fill="#D3D4D5" d="M295.635,54.619
			c-0.148-0.085-0.324-0.146-0.552-0.155c-0.914-0.031-1.555,0.718-1.433,1.797c0.016,0.166,0.033,0.327,0.058,0.48
			C294.385,55.983,295.025,55.279,295.635,54.619z"/>
		<path opacity="0.8" fill-rule="evenodd" clip-rule="evenodd" fill="#D3D4D5" d="M281.901,65.638
			c-0.601-1.746,2.082-2.281,4.847-3.202c2.614-0.873,4.479-2.094,5.682-4.387c0.144-0.273,0.265-0.617,0.367-1.026
			c-0.161,1.25-0.564,2.182-3.213,5.839C286.301,65.848,282.622,67.73,281.901,65.638L281.901,65.638z M293.154,54.332
			L293.154,54.332L293.154,54.332L293.154,54.332z"/>
		<g>
			<path opacity="0.8" fill-rule="evenodd" clip-rule="evenodd" fill="#D3D4D5" d="M267.257,34.556
				c0.153,0.086,0.295,0.212,0.41,0.403c0.475,0.777,0.14,1.709-0.858,2.132c-0.15,0.067-0.302,0.131-0.445,0.185
				C266.688,36.312,266.983,35.412,267.257,34.556z"/>
			<path opacity="0.8" fill-rule="evenodd" clip-rule="evenodd" fill="#D3D4D5" d="M264.428,51.931
				c1.818-0.334,0.962-2.935,0.401-5.791c-0.523-2.708-0.382-4.932,1.021-7.105c0.168-0.26,0.411-0.533,0.714-0.826
				c-1.002,0.758-1.619,1.563-3.504,5.673C262.082,48.208,262.255,52.334,264.428,51.931L264.428,51.931z M268.729,36.575
				l0.006-0.003L268.729,36.575L268.729,36.575z"/>
			<g>
				<path opacity="0.2" fill-rule="evenodd" clip-rule="evenodd" fill="#010101" d="M279.261,49.45
					c-0.292,0.744-0.543,1.488-0.761,2.218v0.004c-0.013,0.047-0.024,0.095-0.04,0.142c-0.099,0.353-0.192,0.703-0.272,1.047
					c-0.013,0.052-0.025,0.112-0.042,0.164c-0.021,0.093-0.038,0.184-0.058,0.273c-0.018,0.063-0.031,0.13-0.044,0.196
					c-0.019,0.087-0.037,0.174-0.054,0.257c-0.011,0.069-0.029,0.133-0.04,0.197c-0.015,0.086-0.025,0.171-0.046,0.258
					c-0.009,0.063-0.022,0.126-0.034,0.192c-0.015,0.083-0.026,0.167-0.039,0.251c-0.011,0.063-0.016,0.129-0.026,0.191
					c-0.012,0.08-0.027,0.161-0.038,0.241c-0.005,0.065-0.016,0.126-0.024,0.186c-0.019,0.147-0.027,0.291-0.044,0.435
					c-0.005,0.064-0.017,0.129-0.017,0.193c-0.013,0.069-0.013,0.138-0.02,0.207c-0.006,0.065-0.006,0.132-0.013,0.196
					c0,0.068-0.005,0.134-0.008,0.2c0,0,0,0.004-0.004,0.004c-0.049,0.066-0.1,0.138-0.153,0.204l0,0
					c-1.006,1.359-2.02,2.659-2.946,3.91l0,0c-0.007,0.013-0.013,0.018-0.02,0.029c-0.148,0.2-0.3,0.405-0.448,0.607
					c0,0.009-0.005,0.021-0.013,0.023c-0.149,0.211-0.3,0.418-0.443,0.622c-0.005,0.003-0.009,0.01-0.012,0.015
					c-0.146,0.206-0.291,0.414-0.43,0.622l0,0c-1.543,2.266-2.633,4.361-2.703,6.307l0.005,0.002
					c-0.008,0.11-0.008,0.213-0.005,0.324c0,0,0,0-0.003,0.001l0,0c0.036,1.646,0.834,3.177,2.738,4.611
					c6.238,4.678,8.453,1.792,17.417-9.995c0.232-0.152,0.464-0.315,0.696-0.489c0,0,0,0,0,0.004
					c2.272-1.658,4.646-4.083,6.019-6.353c0.376-0.621,0.682-1.392,0.93-2.282c0.1-0.11,0.195-0.216,0.299-0.325
					c0.046-0.051,0.092-0.099,0.143-0.149c0.101-0.114,0.206-0.223,0.307-0.329c2.751-2.967,4.718-5.024,5.844-7.496
					c0.014-0.022,0.024-0.049,0.035-0.067c0.059-0.128,0.111-0.262,0.166-0.39c0.007-0.011,0.007-0.018,0.013-0.025
					c0.053-0.133,0.101-0.265,0.155-0.396c0-0.013,0.006-0.021,0.008-0.035c0.054-0.138,0.1-0.281,0.142-0.422
					c0.005-0.009,0.008-0.016,0.01-0.025c0.095-0.298,0.173-0.598,0.25-0.913c-0.002-0.002,0-0.007-0.002-0.012
					c0.157-0.664,0.257-1.376,0.319-2.143c0.055-0.672,0.049-1.324,0.004-1.945l0,0c-0.004-0.003,0-0.007,0-0.007
					c0-0.031-0.006-0.06-0.011-0.091c-0.012-0.161-0.024-0.32-0.044-0.487c-0.01-0.066-0.017-0.132-0.029-0.208
					c-0.016-0.118-0.031-0.232-0.054-0.353c-0.011-0.077-0.023-0.149-0.039-0.225c-0.024-0.111-0.043-0.218-0.063-0.327
					c-0.015-0.078-0.035-0.15-0.051-0.226c-0.029-0.107-0.056-0.215-0.082-0.322c-0.021-0.066-0.035-0.141-0.056-0.209
					c-0.035-0.128-0.073-0.252-0.109-0.371c-0.027-0.094-0.062-0.184-0.09-0.272c-0.04-0.121-0.082-0.235-0.124-0.349
					c-0.027-0.075-0.061-0.152-0.089-0.228c-0.027-0.062-0.046-0.124-0.075-0.183v0.003c-1.617-3.876-4.998-6.355-7.698-7.133
					c-0.457-0.129-0.953-0.173-1.483-0.124l0,0c-0.089,0.011-0.182,0.023-0.269,0.034c-0.028,0.007-0.056,0.013-0.087,0.019
					c-0.084,0.009-0.168,0.031-0.25,0.045c-0.016,0.003-0.029,0.006-0.04,0.008c-0.091,0.023-0.185,0.046-0.281,0.07
					c-0.024,0.012-0.054,0.021-0.082,0.028c-0.092,0.029-0.183,0.057-0.272,0.089c-0.017,0.007-0.031,0.009-0.051,0.017
					c-0.085,0.034-0.181,0.064-0.271,0.104c-0.031,0.012-0.059,0.025-0.094,0.038c-0.091,0.044-0.184,0.08-0.277,0.126
					c-0.024,0.011-0.047,0.024-0.068,0.034c-0.082,0.042-0.167,0.083-0.253,0.129c-0.036,0.018-0.071,0.037-0.106,0.057
					c-0.094,0.05-0.182,0.103-0.272,0.158c-0.038,0.018-0.064,0.038-0.098,0.059c-0.078,0.046-0.153,0.095-0.231,0.144
					c-0.042,0.026-0.082,0.052-0.122,0.078c-0.088,0.062-0.179,0.124-0.27,0.194c-0.037,0.025-0.077,0.056-0.117,0.084
					c-0.052,0.033-0.094,0.067-0.143,0.103c0.005,0,0.005,0,0.002,0.003c-0.831,0.632-1.68,1.452-2.519,2.483
					c0,0,0-0.005-0.002-0.005c-0.022,0.027-0.049,0.062-0.072,0.093c-0.097,0.121-0.2,0.249-0.298,0.376
					c-0.042,0.05-0.08,0.098-0.122,0.155c-0.101,0.135-0.199,0.272-0.304,0.413c-0.022,0.033-0.049,0.07-0.078,0.103l0.004-0.002
					c-0.798,1.112-1.582,2.417-2.337,3.913l0,0c-0.097,0.191-0.191,0.384-0.285,0.582c-0.102,0.216-0.202,0.421-0.297,0.628
					c-0.004,0.012-0.016,0.026-0.019,0.038c-0.09,0.202-0.183,0.397-0.27,0.592c-0.007,0.011-0.01,0.026-0.019,0.039
					c-0.088,0.195-0.172,0.386-0.256,0.578c-0.003,0.003-0.006,0.009-0.008,0.015c-0.082,0.193-0.162,0.384-0.246,0.569l0,0l0,0
					c-0.035,0.099-0.075,0.189-0.115,0.279C282.573,43.432,280.524,46.26,279.261,49.45z M283.586,45.046
					c-0.542,1.575-1.006,2.979-1.687,4.512c-0.15,0.303-0.293,0.604-0.43,0.914c-0.169,0.339-0.354,0.689-0.548,1.054
					c-0.005,0.01-0.009,0.018-0.018,0.031c-0.05,0.086-0.096,0.173-0.149,0.263c-0.004,0.013-0.017,0.029-0.022,0.048
					c-0.053,0.084-0.104,0.175-0.151,0.266c-0.013,0.014-0.017,0.024-0.023,0.033c-0.063,0.104-0.121,0.207-0.184,0.313l0,0
					c-0.028,0.049-0.06,0.098-0.087,0.147c-0.037-0.907-0.044-1.771,0.029-2.491c0.011-0.104,0.023-0.208,0.04-0.312
					c0.002-0.032,0.011-0.063,0.015-0.097c0.015-0.07,0.023-0.138,0.038-0.202c0.007-0.042,0.021-0.084,0.024-0.121
					c0.014-0.06,0.029-0.119,0.045-0.181c0.009-0.039,0.02-0.082,0.033-0.123c0.013-0.058,0.025-0.11,0.044-0.161
					c0.011-0.048,0.025-0.094,0.047-0.132c0.011-0.053,0.026-0.103,0.046-0.154c0.017-0.048,0.036-0.09,0.052-0.136
					c0.02-0.044,0.035-0.091,0.06-0.145c0.019-0.047,0.038-0.085,0.053-0.135c0.024-0.047,0.045-0.091,0.061-0.137
					c0.029-0.045,0.051-0.088,0.075-0.134c0.018-0.045,0.042-0.089,0.067-0.129c0.025-0.046,0.048-0.094,0.072-0.138
					c0.028-0.042,0.047-0.084,0.075-0.124c0.029-0.047,0.056-0.095,0.084-0.141c0.024-0.034,0.05-0.074,0.073-0.114
					c0.036-0.051,0.064-0.097,0.099-0.144c0.023-0.032,0.051-0.063,0.069-0.094c0.145-0.201,0.305-0.396,0.475-0.589
					c0.012-0.018,0.029-0.03,0.036-0.042c0.054-0.059,0.104-0.113,0.159-0.169c0.025-0.024,0.05-0.048,0.071-0.073
					c0.056-0.049,0.104-0.103,0.157-0.157C282.739,45.709,283.143,45.375,283.586,45.046z M295.72,57.495
					c-0.008,0.011-0.012,0.022-0.017,0.03c-0.466,0.785-1.033,1.433-1.691,1.97c0.022-0.028,0.052-0.059,0.073-0.089
					c0.016-0.012,0.035-0.034,0.044-0.05c0.123-0.146,0.243-0.286,0.362-0.429C294.91,58.426,295.32,57.953,295.72,57.495z"/>
				<path fill-rule="evenodd" clip-rule="evenodd" fill="#049DA8" d="M300.205,29.354c-2.923-0.824-7.534,2.043-11.337,9.93
					c-3.809,7.882-2.885,10.207-8.354,17.714c-5.47,7.511-11.441,13.542-5.133,18.308c6.325,4.784,8.563,1.628,18.126-11.024
					c9.358-12.392,14.554-14.123,15.215-21.839C309.351,35.081,304.087,30.448,300.205,29.354z"/>
				<path opacity="0.2" fill-rule="evenodd" clip-rule="evenodd" fill="#010101" d="M287.922,65.638
					c-0.267-1.552,1.928-2.368,4.234-3.559c2.18-1.126,3.803-2.487,5.033-4.765c1.137-2.096,0.991-8.79,0.651-11.897
					c-0.348-3.108,0.118-5.165-4.791-2.068c-4.905,3.094-7.51,5.573-8.25,8.917c-0.741,3.345-1.389,8.926-3.148,9.42
					c-1.763,0.5-0.22-4.575,2.311-10.23c3.074-6.884,8.964-12.378,13.388-12.752c1.636-0.137,1.629-2.198,2.486-1.716
					c0.902,0.512-0.851,2.186-0.511,2.7c1.777,2.691,1.39,13.725-1.079,17.842C295.212,62.588,288.407,68.439,287.922,65.638z"/>
				<path fill-rule="evenodd" clip-rule="evenodd" fill="#CFCFCE" d="M287.922,65.638c-0.601-1.746,2.083-2.281,4.849-3.202
					c2.614-0.873,4.477-2.094,5.678-4.387c1.114-2.111,0.936-8.826-0.021-12.29c-0.958-3.465-0.703-5.643-6.494-3.063
					c-5.789,2.582-8.725,4.865-9.115,8.415c-0.399,3.54,1.016,10.323-1.166,10.576c-2.183,0.255-2.202-5.483,0.112-11.267
					c2.808-7.04,9.297-12.428,14.925-12.104c2.077,0.123,1.729-2.138,2.904-1.468c1.244,0.711-0.729,2.253-0.204,2.877
					c2.733,3.247,2.969,14.03,0.483,18.136C296.816,62.908,289.012,68.791,287.922,65.638z"/>
				<path fill-rule="evenodd" clip-rule="evenodd" fill="#AEADAD" d="M285.198,46.679l-0.024,0.022L285.198,46.679L285.198,46.679
					L285.198,46.679z M285.01,46.855c-1.29,1.249-2.016,2.619-2.192,4.255c-0.399,3.54,1.016,10.323-1.166,10.576
					c-1.892,0.223-2.155-4.072-0.686-8.993C281.973,50.104,283.191,48.592,285.01,46.855z"/>
				<path opacity="0.2" fill-rule="evenodd" clip-rule="evenodd" fill="#010101" d="M282.126,39.958
					c0.062-0.076,0.124-0.157,0.186-0.239l0,0l0,0c0.126-0.161,0.249-0.323,0.38-0.494c0-0.002,0.009-0.009,0.011-0.015
					c0.122-0.165,0.248-0.332,0.377-0.508c0.007-0.01,0.014-0.02,0.026-0.029c0.129-0.175,0.251-0.347,0.382-0.531
					c0.009-0.01,0.013-0.02,0.02-0.031c0.136-0.186,0.266-0.376,0.401-0.568c0.127-0.179,0.251-0.357,0.366-0.537
					c0.002,0,0.002,0,0.002,0c0.936-1.394,1.681-2.718,2.255-3.959l-0.002,0.004c0.021-0.04,0.033-0.078,0.053-0.117
					c0.073-0.162,0.141-0.315,0.21-0.475c0.025-0.057,0.05-0.119,0.074-0.176c0.066-0.149,0.128-0.299,0.184-0.448
					c0.011-0.034,0.029-0.074,0.042-0.108c0,0,0,0,0,0.004c0.478-1.239,0.779-2.381,0.92-3.414l0,0
					c0.009-0.063,0.019-0.119,0.023-0.176c0.004-0.049,0.013-0.099,0.017-0.147c0.014-0.11,0.025-0.22,0.027-0.33
					c0.007-0.046,0.009-0.093,0.013-0.139c0.009-0.094,0.009-0.187,0.013-0.272c0-0.038,0.003-0.076,0.003-0.115
					c0.005-0.106,0.005-0.214,0.005-0.32c-0.005-0.036-0.005-0.074-0.005-0.116c-0.003-0.099-0.007-0.191-0.011-0.285
					c0-0.025-0.007-0.054-0.007-0.08c-0.004-0.1-0.013-0.201-0.024-0.299c-0.005-0.034-0.009-0.069-0.016-0.104
					c-0.013-0.098-0.02-0.193-0.042-0.284c0-0.018-0.004-0.038-0.009-0.054c-0.016-0.091-0.037-0.188-0.058-0.278
					c-0.007-0.029-0.012-0.057-0.02-0.087c-0.021-0.097-0.047-0.187-0.076-0.276c0-0.013-0.006-0.026-0.008-0.04
					c-0.027-0.08-0.057-0.165-0.082-0.242c-0.013-0.028-0.021-0.056-0.031-0.083c-0.031-0.084-0.065-0.167-0.103-0.25l0,0
					c-0.215-0.485-0.499-0.899-0.843-1.236c-2.002-1.964-5.822-3.685-9.992-3.19c0,0,0,0,0.004,0
					c-0.069,0.008-0.135,0.015-0.199,0.026c-0.076,0.013-0.158,0.023-0.244,0.038c-0.119,0.02-0.239,0.04-0.365,0.061
					c-0.09,0.019-0.183,0.039-0.277,0.06c-0.127,0.024-0.249,0.051-0.375,0.083c-0.071,0.015-0.143,0.039-0.215,0.054
					c-0.104,0.03-0.209,0.059-0.317,0.092c-0.075,0.019-0.146,0.045-0.222,0.068c-0.104,0.03-0.208,0.066-0.313,0.104
					c-0.074,0.028-0.147,0.051-0.222,0.072c-0.108,0.046-0.222,0.09-0.335,0.134c-0.067,0.027-0.129,0.052-0.195,0.078
					c-0.146,0.062-0.297,0.127-0.443,0.197c-0.029,0.013-0.059,0.025-0.084,0.039l0,0l0,0c-0.567,0.268-1.136,0.589-1.696,0.963
					c-0.641,0.431-1.204,0.872-1.707,1.331c-0.005,0.005-0.007,0.005-0.012,0.008c-0.232,0.216-0.459,0.438-0.669,0.666
					c-0.012,0.007-0.012,0.01-0.021,0.018c-0.104,0.108-0.202,0.222-0.297,0.333c-0.009,0.007-0.019,0.021-0.024,0.031
					c-0.091,0.105-0.177,0.217-0.271,0.32c-0.005,0.01-0.014,0.018-0.018,0.028c-0.087,0.106-0.173,0.221-0.256,0.332
					c-0.018,0.019-0.03,0.045-0.044,0.063c-1.59,2.204-2.415,4.927-3.646,8.777c-0.044,0.142-0.091,0.289-0.135,0.431
					c-0.022,0.069-0.042,0.137-0.064,0.204c-0.047,0.139-0.091,0.278-0.135,0.421c-0.649,0.644-1.176,1.294-1.532,1.929
					c-1.295,2.307-2.239,5.569-2.563,8.359c-0.002,0.002-0.002,0.002-0.002,0.002c-0.036,0.29-0.061,0.573-0.08,0.854
					c-5.852,13.596-7.267,16.947-0.13,20.067c2.188,0.958,3.912,0.894,5.366,0.118c0,0,0,0,0-0.003c0,0,0,0,0.005,0
					c0.093-0.049,0.184-0.103,0.271-0.16c0,0,0.002,0.001,0.004,0c1.656-1.021,2.949-2.998,4.162-5.454
					c0.002-0.002,0.002-0.002,0.002-0.002c0.109-0.224,0.217-0.452,0.328-0.685c0.002-0.005,0.002-0.007,0.007-0.011
					c0.106-0.229,0.215-0.459,0.323-0.692c0.004-0.011,0.004-0.02,0.012-0.032c0.102-0.226,0.208-0.452,0.313-0.686
					c0.002-0.01,0.002-0.017,0.009-0.024l0,0c0.634-1.427,1.271-2.948,1.951-4.491l0,0c0.035-0.084,0.071-0.159,0.106-0.234
					c0.002-0.005,0.002-0.006,0.002-0.006c0.056-0.034,0.118-0.072,0.173-0.108c0.053-0.031,0.104-0.069,0.162-0.104
					c0.058-0.039,0.119-0.078,0.176-0.12c0.048-0.037,0.105-0.071,0.155-0.11c0.119-0.081,0.237-0.162,0.356-0.25
					c0.049-0.039,0.1-0.074,0.148-0.116c0.064-0.047,0.129-0.092,0.194-0.145c0.051-0.042,0.103-0.08,0.155-0.124
					c0.067-0.051,0.131-0.101,0.195-0.16c0.051-0.036,0.101-0.079,0.153-0.121c0.069-0.056,0.133-0.109,0.199-0.166
					c0.051-0.043,0.098-0.09,0.153-0.131c0.067-0.056,0.133-0.116,0.202-0.175c0.048-0.041,0.097-0.085,0.146-0.133
					c0.07-0.058,0.139-0.121,0.204-0.186c0.046-0.037,0.088-0.079,0.126-0.115c0.262-0.241,0.521-0.494,0.773-0.754
					c0.041-0.035,0.075-0.068,0.104-0.104c0.004-0.003,0.004-0.003,0.009-0.003c0.53-0.547,1.049-1.131,1.555-1.756
					C280.041,46.248,281.494,43.068,282.126,39.958z M279.303,44.52c-0.018,0.073-0.038,0.144-0.058,0.214
					c-0.011,0.034-0.021,0.069-0.028,0.103c-0.021,0.069-0.045,0.145-0.067,0.215c-0.011,0.016-0.013,0.033-0.02,0.056
					c-0.086,0.24-0.175,0.475-0.277,0.7c-0.017,0.038-0.037,0.077-0.05,0.109c-0.025,0.056-0.052,0.104-0.078,0.153
					c-0.022,0.041-0.042,0.087-0.064,0.126c-0.021,0.048-0.051,0.093-0.075,0.14c-0.024,0.042-0.049,0.083-0.074,0.124
					c-0.03,0.046-0.055,0.091-0.084,0.134c-0.029,0.042-0.048,0.084-0.079,0.123c-0.024,0.046-0.054,0.085-0.085,0.125
					c-0.031,0.038-0.057,0.082-0.086,0.127c-0.031,0.036-0.061,0.074-0.089,0.112c-0.033,0.044-0.066,0.082-0.1,0.126
					c-0.029,0.031-0.062,0.07-0.089,0.106c-0.037,0.04-0.073,0.085-0.11,0.12c-0.027,0.032-0.06,0.069-0.094,0.101
					c-0.035,0.04-0.079,0.078-0.119,0.118c-0.033,0.033-0.059,0.066-0.092,0.096c-0.046,0.043-0.093,0.08-0.137,0.119
					c-0.029,0.03-0.059,0.056-0.087,0.085c-0.056,0.043-0.108,0.09-0.161,0.126c-0.029,0.026-0.05,0.047-0.078,0.069
					c-0.082,0.062-0.168,0.124-0.253,0.187c-0.592,0.416-1.341,0.835-2.155,1.25c0.031-0.048,0.063-0.101,0.091-0.148l0,0
					c0.063-0.103,0.12-0.208,0.183-0.309c0.004-0.016,0.011-0.024,0.017-0.04c0.055-0.084,0.107-0.176,0.16-0.264
					c0.007-0.016,0.019-0.031,0.027-0.04c0.05-0.095,0.104-0.181,0.159-0.266c0.007-0.007,0.009-0.016,0.018-0.027
					c0.215-0.353,0.428-0.679,0.646-0.995c0.199-0.27,0.395-0.548,0.582-0.823c0.997-1.349,1.992-2.444,3.095-3.69
					C279.524,43.532,279.43,44.046,279.303,44.52z M262.142,40.325c-0.063,0.168-0.131,0.343-0.199,0.521
					c-0.005,0.018-0.018,0.043-0.021,0.067c-0.015,0.031-0.027,0.068-0.038,0.1c0.146-0.835,0.427-1.64,0.882-2.438
					c0.005-0.011,0.014-0.019,0.018-0.032C262.583,39.118,262.366,39.708,262.142,40.325z"/>
				<path fill-rule="evenodd" clip-rule="evenodd" fill="#049DA8" d="M289.963,23.38c2.158,2.14,1.932,7.566-3.06,14.761
					c-4.988,7.193-7.465,7.531-11.308,15.988c-3.844,8.46-6.162,16.623-13.412,13.478c-7.276-3.155-5.634-6.653,0.679-21.2
					c6.177-14.247,5.124-19.625,11.519-23.993C280.48,18.242,287.103,20.539,289.963,23.38z"/>
				<path opacity="0.2" fill-rule="evenodd" clip-rule="evenodd" fill="#010101" d="M264.428,51.931
					c1.479-0.531,1.115-2.845,1.016-5.436c-0.094-2.449,0.295-4.537,1.668-6.729c1.266-2.021,7.168-5.189,10.041-6.417
					c2.871-1.234,4.435-2.648,4.15,3.145c-0.272,5.799-1.152,9.284-3.698,11.572c-2.548,2.291-7.088,5.599-6.653,7.377
					c0.432,1.781,4.095-2.056,7.773-7.042c4.477-6.066,6.358-13.896,4.505-17.934c-0.683-1.49,1.116-2.499,0.272-3.005
					c-0.884-0.535-1.48,1.816-2.098,1.771c-3.219-0.222-12.63,5.551-14.999,9.721C263.494,44.085,261.753,52.891,264.428,51.931z"/>
				<path fill-rule="evenodd" clip-rule="evenodd" fill="#CFCFCE" d="M264.428,51.931c1.818-0.334,0.962-2.935,0.401-5.791
					c-0.523-2.708-0.382-4.932,1.021-7.105c1.294-2.006,7.223-5.159,10.711-6.033c3.487-0.873,5.257-2.163,5.866,4.147
					c0.604,6.313,0.054,9.989-2.835,12.081c-2.892,2.089-9.497,4.192-8.641,6.215c0.851,2.024,5.859-0.781,9.758-5.641
					c4.739-5.91,6.236-14.213,3.188-18.949c-1.128-1.745,1.017-2.556-0.155-3.252c-1.222-0.73-1.598,1.748-2.398,1.598
					c-4.168-0.783-13.676,4.32-16.024,8.504C262.43,42.852,261.146,52.536,264.428,51.931z"/>
				<path fill-rule="evenodd" clip-rule="evenodd" fill="#AEADAD" d="M282.27,44.974l-0.004,0.028L282.27,44.974L282.27,44.974
					L282.27,44.974z M282.212,45.222c-0.457,1.743-1.288,3.041-2.62,4.007c-2.892,2.089-9.497,4.192-8.641,6.215
					c0.738,1.76,4.607-0.126,8.164-3.83C280.877,49.468,281.596,47.661,282.212,45.222z"/>
			</g>
		</g>
	</g>
	<g>
		<g>
			<path fill="#676767" d="M175.937,79.631c0,0.576,0.206,0.633,0.728,0.633h6.062v0.896h-6.081c-1.119,0-1.64-0.279-1.64-1.528
				v-0.876c0-3.096,3.523-3.882,5.612-5.112c0.821-0.482,1.268-1.285,1.251-2.292c0-0.765-0.356-1.383-0.877-1.809
				c-1.045-0.86-2.442-0.86-3.655-0.504c-0.709,0.188-1.36,0.82-1.38,1.623h-0.933c0-1.156,0.801-1.995,1.883-2.373h0.021
				c1.436-0.461,3.467-0.445,4.66,0.525c0.708,0.615,1.195,1.455,1.212,2.519c0,1.397-0.504,2.369-1.714,3.059
				c-2.09,1.191-5.093,1.734-5.148,4.381V79.631z"/>
			<path fill="#676767" d="M184.328,70.435c0-3.336,7.868-3.336,7.868,0v8.32c0,3.394-7.868,3.394-7.868,0V70.435z M185.523,69.709
				c-0.151,0.203-0.244,0.446-0.244,0.726v8.243c0,0.226,0.04,0.392,0.056,0.469c0.43,1.247,3.303,1.529,4.888,0.876L185.523,69.709
				z M191.266,70.435c0-1.621-3.264-2.051-4.978-1.283l4.716,10.351c0.206-0.262,0.241-0.486,0.241-0.824L191.266,70.435z"/>
			<path fill="#676767" d="M196.578,68.105v13.054h-0.949V69.078h-1.976v-0.973H196.578z"/>
			<path fill="#676767" d="M200.795,81.083c-1.213-0.313-2.164-1.1-2.184-2.328c0-2.728,0-5.504,0-8.207
				c0-1.455,1.232-2.219,2.519-2.461c0.971-0.187,2.37-0.166,3.339,0.109c1.101,0.319,2.052,1.084,2.033,2.331l-0.916-0.019
				c0-0.781-0.709-1.229-1.398-1.431c-0.838-0.244-2.031-0.244-2.891-0.077c-0.819,0.15-1.752,0.598-1.752,1.547
				c0,1.177,0,2.424,0,3.6h3.243c0.393,0,0.803,0.037,1.195,0.113c1.248,0.222,2.519,1.006,2.519,2.441v1.995
				c0,1.27-0.896,2.032-2.07,2.367C203.424,81.345,201.781,81.345,200.795,81.083z M199.545,75.079v1.681v1.995h-0.019
				c0.019,0.724,0.67,1.212,1.51,1.433c0.876,0.226,2.275,0.226,3.151-0.017c0.71-0.204,1.398-0.653,1.398-1.456l-0.017-2.013
				c0-0.951-0.97-1.4-1.753-1.55c-0.336-0.055-0.674-0.073-0.991-0.073H199.545z"/>
		</g>
		<g>
			<g>
				<path fill="#049DA8" d="M140.472,19.626v2.523c-5.449,0-10.849,0-16.298,0c0,4.692,0,9.385,0,14.077h13.775v2.575h-13.775
					c0,1.011-0.051,13.472-0.051,16.197H121.6c0-11.807,0-23.563,0-35.372C127.907,19.626,134.164,19.626,140.472,19.626z"/>
				<path fill="#049DA8" d="M125.212,56.089h-4.702V18.537h21.051v4.702h-16.298v11.899h13.776v4.752h-13.779
					c-0.003,0.906-0.009,2.274-0.014,3.831c-0.015,4.128-0.035,9.586-0.035,11.277V56.089z M122.688,53.908h0.347
					c0.004-2.329,0.021-6.728,0.032-10.194c0.011-2.511,0.018-4.53,0.018-4.913v-1.089h13.775v-0.395h-13.775V21.06h16.298v-0.345
					h-16.695V53.908z"/>
			</g>
			<g>
				<path fill="#049DA8" d="M142.238,54.998V43.747v-6.459v-7.064h2.473v2.725c2.169-3.08,6.963-3.634,10.496-2.725l-0.404,2.372
					c-3.33-1.111-9.991,0.607-9.991,4.641v17.763H142.238z"/>
				<path fill="#049DA8" d="M145.901,56.089h-4.751V29.135h4.651v1.281c1.634-1.085,3.781-1.678,6.207-1.678
					c1.178,0,2.376,0.148,3.471,0.43l0.971,0.25l-0.785,4.612l-1.206-0.401c-0.538-0.179-1.222-0.277-1.974-0.277
					c-2.76,0-6.584,1.349-6.584,3.883V56.089z M143.329,53.908h0.395V37.235c0-0.428,0.057-0.838,0.164-1.228l-0.266,0.378v-5.073
					h-0.292V53.908z M152.007,30.917c-2.651,0-4.839,0.822-6.102,2.27c1.697-1.299,4.163-2.012,6.58-2.012
					c0.505,0,0.987,0.032,1.438,0.099l0.034-0.199C153.322,30.969,152.661,30.917,152.007,30.917z"/>
			</g>
			<g>
				<path fill="#049DA8" d="M160.908,48.135c0,0.808,0.151,1.464,0.605,2.121c0.857,1.159,2.422,1.967,4.189,2.27
					c1.362,0.253,2.623,0.253,3.986,0c1.865-0.252,3.583-1.008,4.69-2.572l2.171,1.312c-1.463,2.371-3.936,3.383-6.508,3.784
					c-1.516,0.252-2.878,0.303-4.391,0.051c-2.574-0.403-4.896-1.563-6.206-3.329c-0.807-1.163-1.112-2.425-1.112-3.838V36.732
					c0-3.33,2.523-5.398,5.803-6.306c2.372-0.656,4.946-0.656,7.317,0c6.559,1.967,7.669,10.696,1.564,13.924
					c-3.532,1.919-8.729,1.212-12.11,1.212V48.135z M160.908,43.342c2.169-0.101,7.519,0.454,10.9-1.16
					c4.287-2.02,3.48-8.075-1.012-9.336c-1.916-0.504-4.086-0.504-6.003,0c-2.169,0.605-3.885,1.918-3.885,3.885V43.342z"/>
				<path fill="#049DA8" d="M167.633,56.355c-0.724,0-1.43-0.062-2.162-0.182c-2.953-0.461-5.473-1.833-6.901-3.756
					c-0.896-1.292-1.324-2.749-1.324-4.485V36.732c0-3.514,2.405-6.194,6.602-7.356c2.549-0.707,5.347-0.707,7.897,0
					c3.568,1.07,5.988,3.976,6.341,7.585c0.343,3.486-1.405,6.687-4.558,8.354c-2.391,1.299-5.318,1.465-7.603,1.465
					c-0.987,0-1.932-0.036-2.846-0.071c-0.372-0.012-0.733-0.025-1.083-0.038v1.465c0,0.652,0.118,1.071,0.413,1.499
					c0.641,0.866,1.947,1.554,3.477,1.818c1.27,0.233,2.361,0.232,3.604,0.004c1.846-0.251,3.176-0.966,4.001-2.134l0.588-0.825
					l3.978,2.402l-0.579,0.936c-1.426,2.314-3.873,3.759-7.266,4.289C169.288,56.279,168.441,56.355,167.633,56.355z
					 M167.796,31.021c-1.15,0-2.283,0.154-3.368,0.454c-1.87,0.517-5.005,1.887-5.005,5.257v11.201c0,1.298,0.292,2.318,0.915,3.214
					c1.072,1.443,3.077,2.5,5.481,2.875c1.327,0.223,2.515,0.206,4.042-0.046c2.29-0.358,3.968-1.148,5.101-2.4l-0.348-0.208
					c-1.169,1.202-2.803,1.971-4.779,2.236c-1.404,0.264-2.825,0.272-4.332-0.008c-2.086-0.357-3.865-1.339-4.866-2.692
					c-0.573-0.828-0.818-1.671-0.818-2.769V36.732c0-2.272,1.749-4.116,4.68-4.934c2.121-0.559,4.487-0.555,6.576-0.004
					c2.597,0.728,4.403,2.893,4.623,5.519c0.21,2.521-1.103,4.761-3.429,5.855c-2.372,1.134-5.492,1.277-7.944,1.277
					c-0.561,0-1.096-0.007-1.586-0.016c-0.705-0.01-1.32-0.02-1.78,0l-0.928,0.044h0.877c0.688,0,1.448,0.029,2.252,0.059
					c0.895,0.034,1.821,0.066,2.765,0.066c1.868,0,4.583-0.122,6.573-1.204c2.403-1.271,3.676-3.595,3.42-6.221
					c-0.265-2.716-2.098-4.901-4.777-5.706C170.078,31.175,168.947,31.021,167.796,31.021z M161.997,42.242
					c0.244,0.002,0.503,0.008,0.776,0.01c0.48,0.009,1.002,0.017,1.553,0.017c2.05,0,5.007-0.112,7.012-1.07
					c1.509-0.708,2.324-2.093,2.191-3.703c-0.145-1.713-1.331-3.125-3.024-3.597c-1.694-0.447-3.706-0.454-5.435,0.001
					c-0.913,0.255-3.073,1.049-3.073,2.832V42.242z"/>
			</g>
			<g>
				<path fill="#049DA8" d="M184.321,48.135c0,0.808,0.15,1.464,0.605,2.121c0.857,1.159,2.421,1.967,4.188,2.27
					c1.362,0.253,2.624,0.253,3.987,0c1.866-0.252,3.58-1.008,4.691-2.572l2.171,1.312c-1.466,2.371-3.936,3.383-6.51,3.784
					c-1.515,0.252-2.876,0.303-4.391,0.051c-2.574-0.403-4.893-1.563-6.207-3.329c-0.807-1.163-1.11-2.425-1.11-3.838V36.732
					c0-3.33,2.521-5.398,5.804-6.306c2.372-0.656,4.946-0.656,7.317,0c6.56,1.967,7.671,10.696,1.564,13.924
					c-3.532,1.919-8.729,1.212-12.11,1.212V48.135z M184.321,43.342c2.168-0.101,7.519,0.454,10.899-1.16
					c4.289-2.02,3.481-8.075-1.011-9.336c-1.917-0.504-4.086-0.504-6.005,0c-2.167,0.605-3.884,1.918-3.884,3.885V43.342z"/>
				<path fill="#049DA8" d="M191.046,56.355c-0.725,0-1.433-0.062-2.161-0.182c-2.954-0.461-5.474-1.833-6.901-3.756
					c-0.898-1.292-1.325-2.749-1.325-4.485V36.732c0-3.514,2.406-6.194,6.602-7.356c2.549-0.707,5.347-0.707,7.897,0
					c3.567,1.07,5.988,3.976,6.341,7.585c0.344,3.486-1.404,6.687-4.557,8.354c-2.393,1.299-5.32,1.465-7.603,1.465
					c-0.987,0-1.934-0.036-2.848-0.071c-0.372-0.012-0.733-0.025-1.081-0.038v1.465c0,0.652,0.115,1.071,0.412,1.499
					c0.638,0.866,1.946,1.554,3.477,1.818c1.272,0.233,2.361,0.232,3.604,0.004c1.844-0.251,3.175-0.966,4.002-2.134l0.585-0.825
					l3.979,2.402l-0.578,0.936c-1.429,2.314-3.873,3.759-7.269,4.289C192.698,56.279,191.853,56.355,191.046,56.355z M191.21,31.021
					c-1.15,0-2.283,0.154-3.368,0.454c-1.871,0.517-5.004,1.887-5.004,5.257v11.201c0,1.296,0.29,2.315,0.914,3.214
					c1.07,1.443,3.075,2.5,5.48,2.875c1.326,0.223,2.515,0.206,4.042-0.046c2.29-0.358,3.966-1.148,5.098-2.4l-0.345-0.208
					c-1.17,1.202-2.802,1.971-4.779,2.236c-1.402,0.264-2.825,0.272-4.333-0.008c-2.086-0.357-3.864-1.339-4.864-2.692
					c-0.573-0.828-0.819-1.671-0.819-2.769V36.732c0-2.272,1.748-4.116,4.682-4.934c2.12-0.559,4.485-0.555,6.574-0.004
					c2.596,0.728,4.405,2.893,4.625,5.519c0.208,2.517-1.104,4.761-3.428,5.855c-2.373,1.134-5.492,1.277-7.944,1.277
					c-0.563,0-1.098-0.007-1.587-0.016c-0.708-0.01-1.32-0.02-1.781,0l-0.928,0.044h0.877c0.686,0,1.445,0.029,2.25,0.059
					c0.898,0.034,1.82,0.066,2.768,0.066c1.866,0,4.581-0.122,6.572-1.204c2.4-1.271,3.678-3.595,3.42-6.221
					c-0.266-2.716-2.097-4.901-4.777-5.706C193.489,31.175,192.356,31.021,191.21,31.021z M185.41,42.242
					c0.243,0.002,0.504,0.008,0.775,0.01c0.479,0.009,1.003,0.017,1.555,0.017c2.048,0,5.006-0.112,7.011-1.07
					c1.508-0.708,2.323-2.093,2.188-3.703c-0.143-1.713-1.331-3.125-3.021-3.597c-1.696-0.447-3.708-0.452-5.436,0.001
					c-0.913,0.255-3.072,1.049-3.072,2.832V42.242z"/>
			</g>
		</g>
		<g>
			<g>
				<path fill="#676767" d="M194.926,18.658h23.058v2.352h-10.165l-0.105,35.093h-2.729l0.109-35.093h-10.167V18.658z"/>
				<path fill="#FCC616" d="M207.713,57.555h-2.729c-0.384,0-0.754-0.152-1.028-0.424c-0.273-0.276-0.427-0.645-0.424-1.032
					l0.104-33.635h-8.71c-0.8,0-1.452-0.65-1.452-1.454v-2.352c0-0.803,0.652-1.453,1.452-1.453h23.058
					c0.802,0,1.452,0.65,1.452,1.453v2.352c0,0.804-0.65,1.454-1.452,1.454h-8.717l-0.102,33.645
					C209.16,56.909,208.514,57.555,207.713,57.555z M206.229,20.109c0.098,0.122,0.173,0.258,0.224,0.403
					c0.056-0.147,0.131-0.284,0.229-0.403H206.229z"/>
			</g>
			<g>
				<path fill="#676767" d="M219.322,48.829c0,0.856,0.16,1.552,0.643,2.246c0.909,1.23,2.568,2.088,4.439,2.407
					c1.445,0.269,2.782,0.269,4.226,0c1.982-0.268,3.8-1.068,4.976-2.729l2.301,1.393c-1.552,2.515-4.175,3.584-6.901,4.012
					c-1.603,0.269-3.051,0.321-4.653,0.055c-2.728-0.428-5.188-1.66-6.582-3.531c-0.854-1.229-1.175-2.568-1.175-4.063V36.739
					c0-3.531,2.674-5.725,6.152-6.689c2.512-0.694,5.241-0.694,7.754,0c6.957,2.088,8.133,11.341,1.661,14.766
					c-3.747,2.033-9.255,1.284-12.84,1.284V48.829z M219.322,43.747c2.302-0.106,7.971,0.482,11.556-1.23
					c4.548-2.14,3.691-8.56-1.068-9.896c-2.035-0.536-4.335-0.536-6.367,0c-2.3,0.64-4.12,2.031-4.12,4.119V43.747z"/>
				<path fill="#FCC616" d="M226.451,57.843c-0.781,0-1.549-0.068-2.337-0.197c-3.207-0.505-5.95-1.997-7.509-4.097
					c-0.995-1.431-1.463-3.027-1.463-4.932V36.739c0-3.869,2.63-6.815,7.217-8.086c2.754-0.763,5.776-0.763,8.53,0
					c3.847,1.152,6.561,4.406,6.939,8.298c0.375,3.819-1.536,7.322-4.988,9.146c-2.589,1.408-5.743,1.591-8.197,1.591
					c-1.052,0-2.058-0.038-3.028-0.077c-0.287-0.008-0.568-0.02-0.841-0.03v1.248c0,0.631,0.104,1.016,0.384,1.419
					c0.63,0.851,1.944,1.538,3.491,1.805c1.319,0.24,2.436,0.238,3.717,0.001c1.886-0.256,3.226-0.971,4.055-2.14
					c0.441-0.62,1.284-0.797,1.938-0.403l2.299,1.393c0.333,0.2,0.57,0.522,0.661,0.901c0.089,0.375,0.026,0.774-0.178,1.104
					c-1.561,2.531-4.224,4.105-7.91,4.683C228.24,57.759,227.326,57.843,226.451,57.843z M218.045,44.44v0.967
					c0.106-0.191,0.251-0.356,0.428-0.484c-0.053-0.038-0.105-0.081-0.153-0.126C218.209,44.69,218.118,44.572,218.045,44.44z
					 M220.774,42.285c0.171,0.005,0.35,0.005,0.532,0.007c0.505,0.009,1.06,0.019,1.641,0.019c2.144,0,5.234-0.115,7.305-1.105
					c1.479-0.697,2.284-2.055,2.154-3.633c-0.107-1.283-0.956-2.982-2.992-3.554c-1.735-0.456-3.821-0.463-5.603,0.005
					c-0.897,0.25-3.037,1.029-3.037,2.715V42.285z"/>
			</g>
			<path fill="none" d="M248.474,34.077c-1.128,0.305-3.037,1.083-3.037,2.822v12.196c0,1.651,1.672,2.479,3.07,2.886
				c0.496,0.134,1.051,0.214,1.622,0.268c2.956-7.326,3.044-13.878,2.45-18.463c-0.424-0.052-0.852-0.088-1.265-0.088
				C250.388,33.698,249.432,33.826,248.474,34.077z"/>
			<path fill="#FCC616" d="M251.314,32.245c-1.122,0-2.192,0.161-3.211,0.427c-1.978,0.536-4.119,1.818-4.119,4.227v12.196
				c0,2.405,2.086,3.691,4.119,4.281c0.455,0.123,0.936,0.21,1.426,0.276c0.211-0.472,0.412-0.939,0.6-1.404
				c-0.571-0.054-1.126-0.134-1.622-0.268c-1.398-0.406-3.07-1.234-3.07-2.886V36.899c0-1.74,1.909-2.518,3.037-2.822
				c0.958-0.251,1.914-0.379,2.841-0.379c0.413,0,0.841,0.036,1.265,0.088c-0.067-0.523-0.144-1.018-0.226-1.487
				C252.006,32.267,251.658,32.245,251.314,32.245z"/>
			<path fill="#FCC616" d="M247.409,55.943c-3.316-0.91-6.099-3.156-6.099-6.848v-12.25c0-3.638,2.835-5.831,6.099-6.741
				c1.231-0.321,2.567-0.534,3.905-0.534c0.148,0,0.299,0.012,0.448,0.018c-0.156-0.585-0.307-1.079-0.437-1.469
				c-0.004,0-0.008,0-0.012,0c-1.354,0-2.795,0.194-4.295,0.587c-4.483,1.25-7.161,4.292-7.161,8.139v12.25
				c0,3.934,2.678,7.02,7.191,8.255c0.173,0.044,0.351,0.078,0.525,0.116c0.257-0.443,0.499-0.885,0.733-1.325
				C248.006,56.084,247.705,56.019,247.409,55.943z"/>
			<path fill="#FFFFFF" d="M262.771,36.846c0-0.104-0.01-0.204-0.013-0.307c-0.266,0.478-0.556,1.061-0.819,1.615
				C262.43,37.921,262.771,37.426,262.771,36.846z"/>
			<path fill="#FFFFFF" d="M258.642,49.204h2.676c0,3.179-2.17,5.312-5.099,6.368c-0.313,0.774-0.571,1.391-0.745,1.802
				c0.035-0.009,0.071-0.015,0.106-0.023c0.131-0.033,0.255-0.088,0.368-0.157c4.281-1.256,6.822-4.222,6.822-7.989
				c0-0.802-0.649-1.452-1.453-1.452h-2.206c-0.416,1.266-0.857,2.514-1.287,3.679C258.332,50.81,258.642,50.071,258.642,49.204z"/>
			<path fill="#FCC616" d="M243.984,49.096V36.899c0-2.409,2.142-3.691,4.119-4.227c1.019-0.267,2.089-0.427,3.211-0.427
				c0.344,0,0.691,0.022,1.039,0.053c-0.182-1.043-0.39-1.956-0.591-2.709c-0.149-0.005-0.3-0.018-0.448-0.018
				c-1.338,0-2.674,0.213-3.905,0.534c-3.264,0.91-6.099,3.103-6.099,6.741v12.25c0,3.691,2.782,5.938,6.099,6.848
				c0.296,0.075,0.597,0.141,0.899,0.198c0.445-0.837,0.852-1.667,1.221-2.488c-0.49-0.066-0.971-0.153-1.426-0.276
				C246.07,52.787,243.984,51.501,243.984,49.096z"/>
			<path fill="#FFFFFF" d="M261.317,49.204h-2.676c0,0.867-0.31,1.605-0.817,2.227c-0.587,1.591-1.152,3.025-1.605,4.142
				C259.147,54.516,261.317,52.383,261.317,49.204z"/>
			<path fill="#FFFFFF" d="M255.219,30.105c3.423,0.963,6.099,3.155,6.099,6.741h-2.676c0-2.14-1.817-3.531-4.172-4.173
				c-0.653-0.181-1.382-0.308-2.116-0.374c0.082,0.47,0.158,0.964,0.226,1.487c0.517,0.063,1.028,0.155,1.509,0.288
				c0.934,0.257,3.102,1.034,3.102,2.772c0,0.803,0.652,1.452,1.452,1.452h2.676c0.224,0,0.432-0.054,0.621-0.144
				c0.264-0.555,0.554-1.138,0.819-1.615c-0.135-3.742-2.72-6.588-7.185-7.841c-1.531-0.384-2.96-0.577-4.247-0.578
				c0.13,0.39,0.28,0.884,0.437,1.469C252.907,29.631,254.083,29.821,255.219,30.105z"/>
			<path fill="#FFFFFF" d="M254.47,32.672c2.354,0.643,4.172,2.034,4.172,4.173h2.676c0-3.586-2.676-5.777-6.099-6.741
				c-1.136-0.284-2.312-0.474-3.456-0.516c0.201,0.754,0.409,1.667,0.591,2.709C253.088,32.365,253.816,32.491,254.47,32.672z"/>
		</g>
		<g>
			<g>
				<path fill="#676767" d="M194.926,18.658h23.058v2.352h-10.165l-0.105,35.093h-2.729l0.109-35.093h-10.167V18.658z"/>
			</g>
			<g>
				<path fill="#676767" d="M219.322,48.829c0,0.856,0.16,1.552,0.643,2.246c0.909,1.23,2.568,2.088,4.439,2.407
					c1.445,0.269,2.782,0.269,4.226,0c1.982-0.268,3.8-1.068,4.976-2.729l2.301,1.393c-1.552,2.515-4.175,3.584-6.901,4.012
					c-1.603,0.269-3.051,0.321-4.653,0.055c-2.728-0.428-5.188-1.66-6.582-3.531c-0.854-1.229-1.175-2.568-1.175-4.063V36.739
					c0-3.531,2.674-5.725,6.152-6.689c2.512-0.694,5.241-0.694,7.754,0c6.957,2.088,8.133,11.341,1.661,14.766
					c-3.747,2.033-9.255,1.284-12.84,1.284V48.829z M219.322,43.747c2.302-0.106,7.971,0.482,11.556-1.23
					c4.548-2.14,3.691-8.56-1.068-9.896c-2.035-0.536-4.335-0.536-6.367,0c-2.3,0.64-4.12,2.031-4.12,4.119V43.747z"/>
			</g>
			<g>
				<path fill="#676767" d="M261.317,49.204c0,3.532-2.676,5.777-6.099,6.685v0.055c-2.515,0.642-5.295,0.642-7.81,0
					c-3.316-0.91-6.099-3.156-6.099-6.848v-12.25c0-3.638,2.835-5.831,6.099-6.741c1.231-0.321,2.567-0.534,3.905-0.534
					c1.283,0,2.62,0.213,3.904,0.534c3.423,0.963,6.099,3.155,6.099,6.741h-2.676c0-2.14-1.817-3.531-4.172-4.173
					c-0.963-0.267-2.085-0.427-3.155-0.427c-1.122,0-2.192,0.161-3.211,0.427c-1.978,0.536-4.119,1.818-4.119,4.227v12.196
					c0,2.405,2.086,3.691,4.119,4.281c1.98,0.534,4.389,0.534,6.366,0h0.055c2.3-0.641,4.117-2.033,4.117-4.173H261.317z"/>
			</g>
		</g>
		<g>
			<g>
				<path fill="#049DA8" d="M270.506,62.529H111.112c-0.15,0-0.271-0.12-0.271-0.272c0-0.148,0.121-0.27,0.271-0.27h159.394
					c0.148,0,0.272,0.121,0.272,0.27C270.778,62.409,270.654,62.529,270.506,62.529z"/>
			</g>
		</g>
	</g>
	<g>
		<path fill="#676767" d="M91.398,5.399H27.129c-3.159,0-5.722,2.561-5.722,5.722v4.087h-3.269c-1.71,0-3.097,1.386-3.097,3.097
			v6.538c0,1.711,1.387,3.097,3.097,3.097h3.269v8.776h-3.269c-1.71,0-3.097,1.386-3.097,3.098v6.538
			c0,1.71,1.387,3.098,3.097,3.098h3.269v8.777h-3.269c-1.71,0-3.097,1.386-3.097,3.097v6.538c0,1.711,1.387,3.097,3.097,3.097
			h3.269v4.43c0,3.159,2.563,5.721,5.722,5.721h64.269c3.16,0,5.721-2.562,5.721-5.721V11.121
			C97.119,7.96,94.558,5.399,91.398,5.399z"/>
		<g>
			<path fill="#049DA8" d="M96.215,74.484c0,3.162-2.561,5.723-5.72,5.723h-64.27c-3.158,0-5.721-2.561-5.721-5.723V10.217
				c0-3.161,2.563-5.722,5.721-5.722h64.27c3.16,0,5.72,2.561,5.72,5.722V74.484z"/>
			<g>
				<path fill="#FFFFFF" d="M76.844,13.66c-3.408-3.663-9.139-3.87-12.803-0.463c-1.927,1.793-2.889,4.234-2.877,6.675
					c-0.006-0.001-0.012-0.003-0.019-0.006c-0.061,3.061-1.308,6.096-3.726,8.345c-2.692,2.502-6.248,3.486-9.623,3.007
					c-0.213-0.038-0.427-0.083-0.642-0.11c-0.039-0.007-0.082-0.012-0.122-0.021c0,0.002,0.001,0.007,0.001,0.011
					c-3.222-0.373-6.581,0.607-9.143,2.989c-4.642,4.318-4.903,11.582-0.586,16.222c4.317,4.641,11.578,4.902,16.219,0.587
					c2.623-2.439,3.846-5.82,3.636-9.137c0.035,0.004,0.071,0.009,0.105,0.014c-0.365-3.534,0.858-7.188,3.66-9.792
					c2.345-2.182,5.343-3.212,8.31-3.128c-0.001-0.009-0.004-0.019-0.006-0.029c2.523,0.274,5.146-0.5,7.15-2.364
					C80.044,23.054,80.251,17.324,76.844,13.66z"/>
				<path fill="#FFFFFF" stroke="#049DA8" stroke-width="0.5" stroke-miterlimit="10" d="M77.458,70.475
					c3.3-3.762,2.926-9.484-0.835-12.782c-1.979-1.737-4.504-2.448-6.932-2.189c0-0.005,0.003-0.013,0.004-0.021
					c-3.051,0.25-6.196-0.683-8.679-2.862c-2.763-2.422-4.102-5.86-3.965-9.269c0.017-0.214,0.038-0.433,0.043-0.648
					c0.005-0.04,0.006-0.081,0.01-0.123c-0.004,0-0.007,0.003-0.012,0.002c0.046-3.243-1.27-6.486-3.897-8.792
					c-4.766-4.182-12.017-3.708-16.199,1.056c-4.18,4.765-3.707,12.016,1.057,16.197c2.692,2.361,6.18,3.236,9.458,2.69
					c0,0.038-0.004,0.072-0.003,0.109c3.476-0.722,7.237,0.125,10.112,2.648c2.405,2.112,3.737,4.992,3.952,7.949
					c0.008-0.001,0.018-0.005,0.027-0.009c-0.018,2.54,1.018,5.07,3.076,6.876C68.437,74.607,74.158,74.236,77.458,70.475z"/>
			</g>
			<path fill="#049DA8" d="M28.764,23.94c0,1.711-1.386,3.097-3.097,3.097h-8.431c-1.71,0-3.097-1.386-3.097-3.097v-6.538
				c0-1.711,1.387-3.098,3.097-3.098h8.431c1.711,0,3.097,1.386,3.097,3.098V23.94z"/>
			<path fill="#049DA8" d="M28.764,45.449c0,1.711-1.386,3.097-3.097,3.097h-8.431c-1.71,0-3.097-1.386-3.097-3.097v-6.539
				c0-1.711,1.387-3.097,3.097-3.097h8.431c1.711,0,3.097,1.386,3.097,3.097V45.449z"/>
			<path fill="#049DA8" d="M28.764,66.958c0,1.712-1.386,3.098-3.097,3.098h-8.431c-1.71,0-3.097-1.386-3.097-3.098v-6.537
				c0-1.712,1.387-3.098,3.097-3.098h8.431c1.711,0,3.097,1.386,3.097,3.098V66.958z"/>
		</g>
	</g>
</g>
</svg>
